<?xml version="1.0" encoding="UTF-8"?>
<!-- Generator: visioncortex VTracer 0.6.3 -->
<svg version="1.1" xmlns="http://www.w3.org/2000/svg" width="1280" height="1280">
<path d="M0 0 C374.22 0 748.44 0 1134 0 C1134 8.91 1134 17.82 1134 27 C1133.67 27.33 1133.34 27.66 1133 28 C1132.87 29.73 1132.8 31.47 1132.75 33.21 C1132.72 34.27 1132.69 35.33 1132.65 36.42 C1132.59 38.67 1132.54 40.92 1132.48 43.17 C1132.45 44.23 1132.41 45.3 1132.38 46.39 C1132.35 47.37 1132.33 48.35 1132.3 49.36 C1132 52 1132 52 1131 53.97 C1129.65 56.71 1129.69 59 1129.62 62.04 C1129.59 63.2 1129.55 64.35 1129.52 65.54 C1129.48 67.35 1129.48 67.35 1129.44 69.19 C1129.38 71.58 1129.31 73.97 1129.25 76.36 C1129.22 77.41 1129.2 78.47 1129.17 79.56 C1129 82 1129 82 1128 83 C1127.84 84.69 1127.75 86.39 1127.68 88.09 C1127.64 89.12 1127.6 90.15 1127.56 91.21 C1127.5 92.84 1127.5 92.84 1127.44 94.5 C1127.39 95.58 1127.35 96.67 1127.31 97.79 C1127.09 102.39 1127.09 102.39 1127 107 C1126.52 108.35 1126.52 108.35 1126.04 109.73 C1124.37 115.47 1124.57 121.44 1124.44 127.38 C1124.38 129.74 1124.31 132.1 1124.25 134.46 C1124.22 135.5 1124.2 136.54 1124.17 137.61 C1124 140 1124 140 1123 141 C1122.86 142.51 1122.77 144.03 1122.72 145.55 C1122.66 146.94 1122.66 146.94 1122.61 148.36 C1122.57 149.33 1122.54 150.31 1122.5 151.31 C1122.43 153.23 1122.36 155.14 1122.28 157.05 C1122.24 158.33 1122.24 158.33 1122.19 159.63 C1121.94 162.72 1121.38 165.23 1120 168 C1119.86 170.02 1119.77 172.04 1119.72 174.07 C1119.66 175.88 1119.66 175.88 1119.61 177.72 C1119.54 180.29 1119.46 182.85 1119.39 185.41 C1119.36 186.62 1119.32 187.82 1119.28 189.07 C1119.24 190.74 1119.24 190.74 1119.19 192.44 C1119 195 1119 195 1118 196 C1117.87 197.74 1117.8 199.49 1117.75 201.24 C1117.72 202.31 1117.69 203.37 1117.65 204.47 C1117.59 206.73 1117.54 208.99 1117.48 211.25 C1117.45 212.32 1117.41 213.39 1117.38 214.49 C1117.35 215.48 1117.33 216.46 1117.3 217.47 C1117 220 1117 220 1115 223 C1114.74 225.31 1114.74 225.31 1114.84 227.86 C1114.86 229.29 1114.86 229.29 1114.87 230.74 C1114.89 231.73 1114.92 232.73 1114.94 233.75 C1115.05 239.95 1115.1 245.88 1114 252 C1113.01 252.33 1112.02 252.66 1111 253 C1110.67 260.26 1110.34 267.52 1110 275 C1110.66 275.33 1111.32 275.66 1112 276 C1111.68 276.7 1111.36 277.4 1111.02 278.12 C1109.9 281.28 1109.7 283.79 1109.62 287.14 C1109.59 288.29 1109.55 289.45 1109.52 290.63 C1109.48 292.42 1109.48 292.42 1109.44 294.25 C1109.38 296.63 1109.31 299.01 1109.25 301.39 C1109.22 302.44 1109.2 303.5 1109.17 304.58 C1109 307 1109 307 1108 308 C1107.87 309.73 1107.8 311.47 1107.75 313.21 C1107.72 314.27 1107.69 315.33 1107.65 316.42 C1107.59 318.67 1107.54 320.92 1107.48 323.17 C1107.43 324.76 1107.43 324.76 1107.38 326.39 C1107.35 327.37 1107.33 328.35 1107.3 329.36 C1107 332 1107 332 1106 333.97 C1104.65 336.71 1104.69 339 1104.62 342.04 C1104.59 343.2 1104.55 344.35 1104.52 345.54 C1104.48 347.35 1104.48 347.35 1104.44 349.19 C1104.38 351.58 1104.31 353.97 1104.25 356.36 C1104.22 357.41 1104.2 358.47 1104.17 359.56 C1104 362 1104 362 1103 363 C1102.84 364.69 1102.75 366.39 1102.68 368.09 C1102.64 369.12 1102.6 370.15 1102.56 371.21 C1102.5 372.84 1102.5 372.84 1102.44 374.5 C1102.39 375.58 1102.35 376.67 1102.31 377.79 C1102.09 382.39 1102.09 382.39 1102 387 C1101.52 388.35 1101.52 388.35 1101.04 389.73 C1099.37 395.47 1099.57 401.44 1099.44 407.38 C1099.38 409.74 1099.31 412.1 1099.25 414.46 C1099.21 416.02 1099.21 416.02 1099.17 417.61 C1099 420 1099 420 1098 421 C1097.87 422.66 1097.8 424.32 1097.75 425.99 C1097.72 427 1097.69 428.02 1097.65 429.07 C1097.59 431.22 1097.54 433.37 1097.48 435.52 C1097.45 436.54 1097.41 437.56 1097.38 438.61 C1097.34 440.02 1097.34 440.02 1097.3 441.45 C1097 444 1097 444 1096 445.95 C1094.63 448.76 1094.69 451.14 1094.62 454.26 C1094.59 455.46 1094.55 456.66 1094.52 457.9 C1094.48 459.78 1094.48 459.78 1094.44 461.69 C1094.38 464.17 1094.31 466.65 1094.25 469.14 C1094.22 470.24 1094.2 471.34 1094.17 472.47 C1094 475 1094 475 1093 476 C1092.87 477.74 1092.8 479.49 1092.75 481.24 C1092.72 482.31 1092.69 483.37 1092.65 484.47 C1092.59 486.73 1092.54 488.99 1092.48 491.25 C1092.45 492.32 1092.41 493.39 1092.38 494.49 C1092.35 495.48 1092.33 496.46 1092.3 497.47 C1092 500 1092 500 1090 503 C1089.65 506.09 1089.65 506.09 1089.62 509.6 C1089.59 510.9 1089.55 512.19 1089.52 513.52 C1089.49 514.89 1089.46 516.26 1089.44 517.62 C1089.38 520.3 1089.31 522.98 1089.25 525.66 C1089.22 526.85 1089.2 528.05 1089.17 529.27 C1089 532 1089 532 1088 533 C1087.84 534.55 1087.75 536.1 1087.68 537.66 C1087.64 538.6 1087.6 539.54 1087.56 540.5 C1087.52 541.49 1087.48 542.48 1087.44 543.5 C1087.37 544.98 1087.37 544.98 1087.31 546.5 C1087.09 550.75 1087.09 550.75 1087 555 C1086.68 555.88 1086.36 556.76 1086.02 557.67 C1084.99 561.03 1084.7 563.74 1084.62 567.24 C1084.59 568.39 1084.55 569.54 1084.52 570.72 C1084.48 572.5 1084.48 572.5 1084.44 574.31 C1084.38 576.68 1084.31 579.05 1084.25 581.43 C1084.22 582.47 1084.2 583.52 1084.17 584.59 C1084 587 1084 587 1083 588 C1082.87 589.73 1082.8 591.47 1082.75 593.21 C1082.72 594.27 1082.69 595.33 1082.65 596.42 C1082.59 598.67 1082.54 600.92 1082.48 603.17 C1082.45 604.23 1082.41 605.3 1082.38 606.39 C1082.34 607.86 1082.34 607.86 1082.3 609.36 C1082 612 1082 612 1081 613.97 C1079.65 616.71 1079.69 619 1079.62 622.04 C1079.59 623.2 1079.55 624.35 1079.52 625.54 C1079.48 627.35 1079.48 627.35 1079.44 629.19 C1079.38 631.58 1079.31 633.97 1079.25 636.36 C1079.22 637.41 1079.2 638.47 1079.17 639.56 C1079 642 1079 642 1078 643 C1077.84 644.85 1077.75 646.71 1077.68 648.57 C1077.64 649.69 1077.6 650.82 1077.56 651.97 C1077.5 653.75 1077.5 653.75 1077.44 655.56 C1077.39 656.75 1077.35 657.94 1077.31 659.16 C1077.2 662.11 1077.1 665.05 1077 668 C1076.67 668 1076.34 668 1076 668 C1075.12 671.82 1074.83 675.44 1074.72 679.36 C1074.66 681.16 1074.66 681.16 1074.61 682.99 C1074.53 685.51 1074.46 688.04 1074.39 690.56 C1074.34 692.35 1074.34 692.35 1074.28 694.17 C1074.24 695.81 1074.24 695.81 1074.19 697.49 C1074 700 1074 700 1073 701 C1072.87 702.66 1072.8 704.32 1072.75 705.99 C1072.72 707 1072.69 708.02 1072.65 709.07 C1072.59 711.22 1072.54 713.37 1072.48 715.52 C1072.45 716.54 1072.41 717.56 1072.38 718.61 C1072.35 719.55 1072.33 720.49 1072.3 721.45 C1072 724 1072 724 1071 725.95 C1069.63 728.76 1069.69 731.14 1069.62 734.26 C1069.57 736.06 1069.57 736.06 1069.52 737.9 C1069.48 739.78 1069.48 739.78 1069.44 741.69 C1069.38 744.17 1069.31 746.65 1069.25 749.14 C1069.22 750.24 1069.2 751.34 1069.17 752.47 C1069 755 1069 755 1068 756 C1067.86 757.51 1067.77 759.03 1067.72 760.55 C1067.66 761.94 1067.66 761.94 1067.61 763.36 C1067.57 764.33 1067.54 765.31 1067.5 766.31 C1067.43 768.23 1067.36 770.14 1067.28 772.05 C1067.24 773.33 1067.24 773.33 1067.19 774.63 C1066.94 777.72 1066.38 780.23 1065 783 C1064.86 785.17 1064.77 787.33 1064.72 789.5 C1064.68 790.8 1064.64 792.1 1064.61 793.44 C1064.55 795.51 1064.5 797.57 1064.45 799.64 C1064.4 801.64 1064.34 803.63 1064.28 805.63 C1064.24 807.42 1064.24 807.42 1064.19 809.26 C1064 812 1064 812 1063 813 C1062.84 814.56 1062.75 816.13 1062.68 817.69 C1062.64 818.64 1062.6 819.58 1062.56 820.55 C1062.5 822.04 1062.5 822.04 1062.44 823.56 C1062.39 824.56 1062.35 825.56 1062.31 826.58 C1062.2 829.06 1062.1 831.53 1062 834 C1061.67 834 1061.34 834 1061 834 C1061.02 834.97 1061.04 835.94 1061.06 836.94 C1061 840 1061 840 1060 841 C1059.85 842.91 1059.77 844.83 1059.72 846.75 C1059.66 848.5 1059.66 848.5 1059.61 850.28 C1059.57 851.51 1059.54 852.74 1059.5 854 C1059.43 856.42 1059.36 858.83 1059.28 861.25 C1059.24 862.87 1059.24 862.87 1059.19 864.52 C1059 867 1059 867 1058 868 C1057.87 869.73 1057.8 871.47 1057.75 873.21 C1057.72 874.27 1057.69 875.33 1057.65 876.42 C1057.59 878.67 1057.54 880.92 1057.48 883.17 C1057.45 884.23 1057.41 885.3 1057.38 886.39 C1057.34 887.86 1057.34 887.86 1057.3 889.36 C1057 892 1057 892 1056 893.97 C1054.65 896.71 1054.69 899 1054.62 902.04 C1054.59 903.2 1054.55 904.35 1054.52 905.54 C1054.48 907.35 1054.48 907.35 1054.44 909.19 C1054.38 911.58 1054.31 913.97 1054.25 916.36 C1054.22 917.41 1054.2 918.47 1054.17 919.56 C1054 922 1054 922 1053 923 C1052.84 924.85 1052.75 926.71 1052.68 928.57 C1052.64 929.69 1052.6 930.82 1052.56 931.97 C1052.5 933.75 1052.5 933.75 1052.44 935.56 C1052.39 936.75 1052.35 937.94 1052.31 939.16 C1052.2 942.11 1052.1 945.05 1052 948 C1051.67 948 1051.34 948 1051 948 C1050.12 951.82 1049.83 955.44 1049.72 959.36 C1049.66 961.16 1049.66 961.16 1049.61 962.99 C1049.53 965.51 1049.46 968.04 1049.39 970.56 C1049.34 972.35 1049.34 972.35 1049.28 974.17 C1049.24 975.81 1049.24 975.81 1049.19 977.49 C1049 980 1049 980 1048 981 C1047.86 982.51 1047.77 984.03 1047.72 985.55 C1047.66 986.94 1047.66 986.94 1047.61 988.36 C1047.57 989.33 1047.54 990.31 1047.5 991.31 C1047.43 993.23 1047.36 995.14 1047.28 997.05 C1047.24 998.33 1047.24 998.33 1047.19 999.63 C1046.94 1002.72 1046.38 1005.23 1045 1008 C1044.86 1010.02 1044.77 1012.04 1044.72 1014.07 C1044.66 1015.88 1044.66 1015.88 1044.61 1017.72 C1044.54 1020.29 1044.46 1022.85 1044.39 1025.41 C1044.34 1027.22 1044.34 1027.22 1044.28 1029.07 C1044.24 1030.74 1044.24 1030.74 1044.19 1032.44 C1044 1035 1044 1035 1043 1036 C1042.85 1037.76 1042.77 1039.52 1042.72 1041.28 C1042.66 1042.88 1042.66 1042.88 1042.61 1044.52 C1042.57 1045.65 1042.54 1046.78 1042.5 1047.94 C1042.43 1050.16 1042.36 1052.37 1042.28 1054.59 C1042.25 1055.58 1042.22 1056.57 1042.19 1057.59 C1042 1060 1042 1060 1041 1062 C1039.95 1065.35 1039.82 1068.54 1039.72 1072.04 C1039.68 1073.2 1039.64 1074.35 1039.61 1075.54 C1039.53 1077.99 1039.46 1080.43 1039.39 1082.87 C1039.36 1084.02 1039.32 1085.17 1039.28 1086.36 C1039.24 1087.94 1039.24 1087.94 1039.19 1089.56 C1039 1092 1039 1092 1038 1093 C1037.84 1094.56 1037.75 1096.13 1037.68 1097.69 C1037.64 1098.64 1037.6 1099.58 1037.56 1100.55 C1037.5 1102.04 1037.5 1102.04 1037.44 1103.56 C1037.39 1104.56 1037.35 1105.56 1037.31 1106.58 C1037.2 1109.06 1037.1 1111.53 1037 1114 C1036.67 1114 1036.34 1114 1036 1114 C1036.02 1114.97 1036.04 1115.94 1036.06 1116.94 C1036 1120 1036 1120 1035 1121 C1034.87 1122.78 1034.8 1124.57 1034.75 1126.36 C1034.72 1127.45 1034.69 1128.55 1034.65 1129.68 C1034.59 1132 1034.54 1134.32 1034.48 1136.63 C1034.45 1137.74 1034.41 1138.84 1034.38 1139.98 C1034.35 1140.99 1034.33 1142 1034.3 1143.04 C1033.97 1146.31 1033.28 1148.97 1032 1152 C1026.24 1155.84 1019.82 1157.2 1013 1158 C1012.26 1158.19 1011.51 1158.37 1010.75 1158.56 C1009 1159 1009 1159 1006 1159 C1005.67 1159.66 1005.34 1160.32 1005 1161 C1002.5 1161.63 1002.5 1161.63 999.44 1162.12 C998.43 1162.29 997.41 1162.46 996.37 1162.63 C995.59 1162.75 994.81 1162.88 994 1163 C994 1163.33 994 1163.66 994 1164 C978.33 1167.96 978.33 1167.96 972.88 1169.12 C969.15 1169.9 969.15 1169.9 966.19 1170.94 C962.09 1172.3 957.92 1173.24 953.71 1174.22 C950.81 1174.91 950.81 1174.91 948 1177 C946.1 1177.2 944.21 1177.4 942.31 1177.59 C938.79 1178.22 935.68 1179.69 932.39 1181.08 C929.3 1182.27 926.29 1182.67 923 1183 C921.66 1183.31 920.32 1183.63 919 1184 C919 1183.34 919 1182.68 919 1182 C918.01 1182 917.02 1182 916 1182 C915.67 1183.32 915.34 1184.64 915 1186 C913.84 1186.16 913.84 1186.16 912.66 1186.33 C907.14 1187.17 902.14 1188.14 896.99 1190.29 C894.7 1191.11 892.46 1191.52 890.06 1191.94 C886.53 1192.58 883.61 1193.52 880.38 1195.06 C877.49 1196.44 875.12 1197.26 871.94 1197.56 C868.78 1197.91 867 1198.28 864.19 1199.44 C857.77 1202.02 850.9 1203.16 844 1203 C843.67 1203.99 843.34 1204.98 843 1206 C842.32 1206.13 841.65 1206.27 840.95 1206.4 C840.06 1206.58 839.17 1206.76 838.25 1206.94 C836.93 1207.2 836.93 1207.2 835.58 1207.46 C834 1207.79 832.42 1208.15 830.86 1208.57 C829 1209 829 1209 826 1209 C825.67 1209.66 825.34 1210.32 825 1211 C822.56 1211.53 822.56 1211.53 819.44 1211.94 C814.97 1212.61 811.14 1213.56 806.99 1215.29 C804.7 1216.11 802.46 1216.52 800.06 1216.94 C795.67 1217.73 792.03 1219.22 788.02 1221.12 C785.37 1222.27 782.86 1222.64 780 1223 C778.43 1223.29 776.87 1223.61 775.31 1223.94 C774.57 1224.09 773.82 1224.24 773.05 1224.4 C770.72 1224.97 770.72 1224.97 768 1227 C766.1 1227.2 764.2 1227.4 762.3 1227.59 C759.68 1228.06 757.51 1228.94 755.06 1230 C749.48 1232.37 743.9 1233.97 738 1232 C738 1232.66 738 1233.32 738 1234 C734.51 1236.06 731.63 1237.17 727.62 1237.5 C723.72 1237.82 720.6 1238.76 716.99 1240.23 C713.71 1241.5 710.45 1242.29 707 1243 C706.34 1242.67 705.68 1242.34 705 1242 C705 1242.66 705 1243.32 705 1244 C704.05 1244.27 703.1 1244.54 702.12 1244.81 C699.92 1245.44 697.74 1246.08 695.55 1246.77 C690.69 1248.28 686.06 1249.29 681 1250 C680.36 1250.33 679.72 1250.66 679.06 1251 C675.83 1252.57 672.56 1252.64 669 1253 C669 1253.33 669 1253.66 669 1254 C666.52 1254.63 664.04 1255.25 661.56 1255.88 C660.47 1256.15 660.47 1256.15 659.35 1256.43 C655.47 1257.4 651.6 1258.32 647.69 1259.12 C643.94 1259.79 643.94 1259.79 641 1262 C639.06 1262.23 637.11 1262.46 635.17 1262.66 C632.29 1263.11 629.81 1264.16 627.12 1265.25 C624.8 1266.07 622.55 1266.51 620.12 1266.94 C615.55 1267.77 611.58 1269.31 607.31 1271.12 C604.26 1272.28 601.23 1272.58 598 1273 C596.72 1273.45 595.45 1273.93 594.19 1274.44 C590.23 1276.03 586.3 1276.79 582.1 1277.47 C579.8 1277.86 579.8 1277.86 578 1280 C574.67 1280.45 571.3 1280.32 567.94 1280.31 C567.02 1280.33 566.1 1280.34 565.16 1280.36 C557.67 1280.37 551.3 1279.2 545 1275 C542.68 1274.61 540.34 1274.27 538 1274 C538 1273.34 538 1272.68 538 1272 C537.32 1271.95 536.65 1271.9 535.95 1271.85 C535.06 1271.78 534.17 1271.7 533.25 1271.62 C531.93 1271.52 531.93 1271.52 530.58 1271.41 C528.01 1271 526.24 1270.29 524 1269 C524 1268.34 524 1267.68 524 1267 C523.22 1267.21 522.43 1267.41 521.62 1267.62 C516.91 1268.11 512.49 1267.58 508 1266 C507.34 1265.01 506.68 1264.02 506 1263 C503.28 1262.53 503.28 1262.53 500.19 1262.5 C495.48 1262.36 492.94 1261.56 489 1259 C487.33 1258.96 485.67 1258.96 484 1259 C480.83 1258.21 477.81 1257.34 474.8 1256.06 C471.18 1254.69 467.51 1253.83 463.75 1252.94 C456.13 1251.13 456.13 1251.13 455 1250 C453.67 1249.67 452.34 1249.39 451 1249.12 C445.53 1247.96 440.02 1246.51 435 1244 C433.38 1243.76 431.76 1243.53 430.14 1243.31 C427.65 1242.95 425.17 1242.56 422.69 1242.12 C421.85 1241.98 421 1241.84 420.14 1241.7 C418 1241 418 1241 416 1238 C413.28 1237.53 413.28 1237.53 410.19 1237.5 C405.48 1237.36 402.94 1236.56 399 1234 C397.33 1233.96 395.67 1233.96 394 1234 C390.82 1233.2 387.79 1232.34 384.77 1231.05 C381.29 1229.73 377.74 1228.86 374.12 1228 C369.05 1226.77 364.01 1225.47 359 1224 C359 1223.34 359 1222.68 359 1222 C357.83 1221.91 357.83 1221.91 356.63 1221.82 C355.11 1221.69 355.11 1221.69 353.56 1221.56 C352.55 1221.48 351.54 1221.4 350.5 1221.32 C348 1221 348 1221 347 1220 C343.92 1219.34 340.83 1218.76 337.72 1218.19 C333.96 1217.48 330.45 1216.7 327 1215 C326.67 1214.34 326.34 1213.68 326 1213 C323.03 1212.64 320.07 1212.56 317.08 1212.44 C313.7 1211.96 311.84 1210.83 309 1209 C306.33 1208.83 306.33 1208.83 304 1209 C303.67 1208.67 303.34 1208.34 303 1208 C301.47 1207.65 299.92 1207.35 298.38 1207.06 C294.17 1206.25 290.11 1205.25 286 1204 C284.33 1203.5 282.67 1203 281 1202.5 C279.74 1202.12 279.74 1202.12 278.45 1201.73 C275.3 1200.79 272.15 1199.89 269 1199 C269 1198.34 269 1197.68 269 1197 C267.83 1196.91 267.83 1196.91 266.63 1196.82 C265.11 1196.69 265.11 1196.69 263.56 1196.56 C262.55 1196.48 261.54 1196.4 260.5 1196.32 C258 1196 258 1196 257 1195 C253.92 1194.34 250.83 1193.76 247.72 1193.19 C243.96 1192.48 240.45 1191.7 237 1190 C236.67 1189.34 236.34 1188.68 236 1188 C233.03 1187.64 230.07 1187.56 227.08 1187.44 C223.7 1186.96 221.84 1185.83 219 1184 C216.33 1183.83 216.33 1183.83 214 1184 C213.67 1183.67 213.34 1183.34 213 1183 C211.47 1182.65 209.92 1182.35 208.38 1182.06 C204.17 1181.25 200.11 1180.25 196 1179 C194.33 1178.5 192.67 1178 191 1177.5 C189.74 1177.12 189.74 1177.12 188.45 1176.73 C185.3 1175.79 182.15 1174.89 179 1174 C179 1173.34 179 1172.68 179 1172 C178.25 1171.95 177.5 1171.9 176.73 1171.85 C175.26 1171.74 175.26 1171.74 173.75 1171.62 C172.29 1171.52 172.29 1171.52 170.8 1171.41 C168.1 1171.02 166.33 1170.36 164 1169 C164 1168.34 164 1167.68 164 1167 C163.32 1167.37 162.64 1167.74 161.94 1168.12 C156.73 1169.68 151.82 1167.12 147 1165 C146.67 1164.67 146.34 1164.34 146 1164 C144.33 1163.96 142.67 1163.96 141 1164 C141 1163.67 141 1163.34 141 1163 C140.3 1162.88 139.6 1162.76 138.88 1162.63 C137.97 1162.47 137.06 1162.3 136.12 1162.12 C135.22 1161.96 134.32 1161.8 133.38 1161.63 C131 1161 131 1161 129 1159 C127.33 1158.96 125.67 1158.96 124 1159 C123.67 1158.67 123.34 1158.34 123 1158 C121.34 1157.63 119.67 1157.3 118 1157 C113.11 1156.11 113.11 1156.11 112 1155 C110.91 1154.94 109.81 1154.88 108.69 1154.81 C105 1154 105 1154 102.62 1151.69 C97.44 1142.25 99.9 1127.49 100 1117 C99.34 1116.67 98.68 1116.34 98 1116 C97.61 1113.24 97.61 1113.24 97.4 1109.59 C97.34 1108.61 97.34 1108.61 97.28 1107.62 C97.16 1105.54 97.05 1103.46 96.94 1101.38 C96.82 1099.31 96.7 1097.25 96.58 1095.19 C96.47 1093.31 96.37 1091.42 96.27 1089.53 C96 1085.99 95.52 1082.52 95 1079 C94.88 1077.51 94.78 1076.01 94.72 1074.52 C94.66 1073.36 94.66 1073.36 94.61 1072.18 C94.53 1070.59 94.46 1069 94.39 1067.41 C94.34 1066.26 94.34 1066.26 94.28 1065.08 C94.25 1064.39 94.22 1063.7 94.19 1063 C94.05 1061 94.05 1061 93.51 1059.12 C92.85 1056.4 92.69 1053.75 92.5 1050.95 C92.42 1049.78 92.33 1048.6 92.25 1047.39 C92.17 1046.17 92.08 1044.95 92 1043.69 C91.53 1036.75 91.02 1029.89 90 1023 C89.83 1020.39 89.68 1017.8 89.56 1015.19 C89.25 1009.18 88.76 1003.22 88.06 997.25 C87.94 996.14 87.94 996.14 87.81 995.01 C87.63 993.48 87.45 991.94 87.27 990.41 C85.69 976.55 84.69 962.96 85 949 C84.34 948.67 83.68 948.34 83 948 C82.62 945.5 82.62 945.5 82.44 942.15 C82.36 940.91 82.29 939.68 82.21 938.41 C82.18 937.75 82.14 937.09 82.11 936.41 C81.93 932.99 81.71 929.57 81.5 926.14 C81.46 925.46 81.42 924.77 81.38 924.06 C81 917.72 80.5 911.39 79.94 905.06 C79.86 904.14 79.78 903.22 79.7 902.27 C79.38 898.72 79.03 895.21 78.5 891.68 C77.59 884.99 77.23 878.25 76.75 871.52 C76.26 864.88 76.26 864.88 75.44 858.28 C74.87 854.02 74.89 849.85 74.94 845.56 C74.94 844.74 74.95 843.91 74.95 843.06 C74.96 841.04 74.98 839.02 75 837 C74.34 836.67 73.68 836.34 73 836 C72.61 833.46 72.61 833.46 72.4 830.09 C72.32 828.87 72.24 827.65 72.16 826.4 C72.09 825.11 72.01 823.83 71.94 822.5 C71.78 819.99 71.62 817.48 71.46 814.97 C71.39 813.76 71.31 812.56 71.24 811.32 C71.04 808.58 70.78 805.88 70.45 803.16 C69.92 798.74 69.89 794.38 69.94 789.94 C69.94 789.17 69.95 788.4 69.95 787.6 C69.96 785.74 69.98 783.87 70 782 C69.34 781.67 68.68 781.34 68 781 C67.61 778.15 67.61 778.15 67.4 774.37 C67.36 773.7 67.32 773.03 67.28 772.34 C67.16 770.18 67.05 768.03 66.94 765.88 C66.82 763.74 66.7 761.61 66.58 759.48 C66.47 757.53 66.37 755.58 66.27 753.62 C66 750.05 65.52 746.55 65 743 C64.88 741.48 64.78 739.97 64.72 738.45 C64.66 737.28 64.66 737.28 64.61 736.08 C64.53 734.47 64.46 732.85 64.39 731.23 C64.3 726.98 64.3 726.98 63 723 C62.79 720.91 62.63 718.81 62.5 716.71 C62.42 715.44 62.34 714.17 62.25 712.86 C62.17 711.51 62.08 710.16 62 708.81 C61.84 706.19 61.67 703.58 61.5 700.96 C61.43 699.79 61.36 698.63 61.28 697.43 C60.99 693.92 60.51 690.48 60 687 C59.88 685.56 59.78 684.11 59.72 682.67 C59.68 681.93 59.64 681.2 59.61 680.44 C59.53 678.92 59.46 677.4 59.39 675.88 C59.27 671.81 59.27 671.81 58 668 C57.79 665.83 57.63 663.66 57.5 661.49 C57.38 659.52 57.38 659.52 57.25 657.5 C57.17 656.11 57.08 654.71 57 653.31 C56.88 651.26 56.75 649.2 56.62 647.15 C56.51 645.27 56.39 643.39 56.28 641.52 C56 637.98 55.51 634.51 55 631 C54.89 629.66 54.81 628.32 54.75 626.98 C54.72 626.27 54.69 625.57 54.66 624.85 C54.63 624.12 54.6 623.38 54.56 622.62 C54.27 616.61 53.81 610.66 53.06 604.69 C51.09 588.75 49.65 573.08 50 557 C49.34 556.67 48.68 556.34 48 556 C47.62 553.5 47.62 553.5 47.44 550.15 C47.36 548.92 47.29 547.69 47.22 546.42 C47.18 545.76 47.15 545.1 47.11 544.42 C46.92 540.96 46.71 537.5 46.5 534.05 C46.45 533.35 46.41 532.66 46.37 531.94 C46.02 526.16 45.58 520.39 45.06 514.62 C44.98 513.73 44.9 512.83 44.82 511.9 C44.32 506.39 43.8 500.89 43.28 495.38 C43.08 493.34 42.89 491.3 42.7 489.25 C42.57 487.88 42.44 486.51 42.3 485.14 C41.29 474.45 40.4 463.76 39.65 453.06 C39.57 452.07 39.5 451.07 39.43 450.05 C39.37 449.19 39.31 448.33 39.25 447.45 C39.04 444.99 39.04 444.99 38.5 442.57 C37.93 439.65 37.7 436.79 37.5 433.82 C37.42 432.64 37.34 431.47 37.25 430.26 C37.17 429.04 37.09 427.82 37 426.56 C36.84 424.15 36.67 421.73 36.5 419.32 C36.43 418.25 36.36 417.18 36.28 416.08 C36 413.02 35.51 410.03 35 407 C34.88 405.47 34.78 403.93 34.72 402.4 C34.68 401.58 34.64 400.76 34.61 399.91 C34.53 398.21 34.46 396.51 34.39 394.81 C34.34 393.59 34.34 393.59 34.28 392.34 C34.25 391.6 34.22 390.86 34.19 390.1 C34.06 388.02 34.06 388.02 33.51 386.11 C32.85 383.38 32.69 380.72 32.5 377.91 C32.42 376.74 32.34 375.56 32.25 374.34 C32.17 373.12 32.09 371.89 32 370.62 C31.84 368.2 31.67 365.78 31.5 363.35 C31.43 362.28 31.36 361.2 31.28 360.1 C31.04 356.99 31.04 356.99 30.47 353.9 C30.05 351.28 29.88 348.9 29.9 346.26 C29.91 345.42 29.91 344.58 29.91 343.72 C29.92 342.86 29.93 342.01 29.94 341.12 C29.94 340.25 29.95 339.37 29.95 338.46 C29.96 336.31 29.98 334.15 30 332 C29.34 331.67 28.68 331.34 28 331 C27.61 328.78 27.61 328.78 27.4 325.86 C27.28 324.25 27.28 324.25 27.16 322.61 C27.09 321.48 27.01 320.35 26.94 319.19 C26.78 316.99 26.62 314.8 26.46 312.61 C26.39 311.51 26.31 310.41 26.24 309.28 C26.01 306.1 25.73 302.93 25.45 299.75 C25.02 294.74 24.88 289.78 24.94 284.75 C24.94 283.99 24.95 283.24 24.95 282.46 C24.96 280.64 24.98 278.82 25 277 C24.34 276.67 23.68 276.34 23 276 C22.61 273.15 22.61 273.15 22.4 269.37 C22.36 268.7 22.32 268.03 22.28 267.34 C22.16 265.18 22.05 263.03 21.94 260.88 C21.82 258.74 21.7 256.61 21.58 254.48 C21.47 252.53 21.37 250.58 21.27 248.62 C21 245.05 20.53 241.55 20 238 C19.85 235.61 19.73 233.21 19.62 230.81 C19.1 220.37 17.88 209.99 16.72 199.6 C15.72 190.47 14.84 181.5 14.94 172.31 C14.94 171.5 14.95 170.69 14.95 169.86 C14.96 167.91 14.98 165.95 15 164 C14.34 163.67 13.68 163.34 13 163 C12.62 160.5 12.62 160.5 12.44 157.15 C12.36 155.91 12.29 154.68 12.21 153.41 C12.18 152.75 12.14 152.09 12.11 151.41 C11.93 147.99 11.71 144.57 11.5 141.14 C11.46 140.46 11.42 139.77 11.38 139.06 C11 132.72 10.5 126.39 9.94 120.06 C9.82 118.68 9.82 118.68 9.7 117.27 C9.38 113.72 9.03 110.21 8.5 106.68 C7.59 99.99 7.23 93.25 6.75 86.52 C6.26 79.88 6.26 79.88 5.44 73.28 C4.87 69.02 4.89 64.85 4.94 60.56 C4.94 59.74 4.95 58.91 4.95 58.06 C4.96 56.04 4.98 54.02 5 52 C4.34 51.67 3.68 51.34 3 51 C2.61 48.24 2.61 48.24 2.4 44.59 C2.36 43.94 2.32 43.29 2.28 42.62 C2.16 40.54 2.05 38.46 1.94 36.38 C1.82 34.31 1.7 32.25 1.58 30.19 C1.47 28.31 1.37 26.42 1.27 24.53 C1.06 21.06 1.06 21.06 0.47 17.92 C-0.24 11.99 0 5.98 0 0 Z M1127 56 C1127 64.25 1127 72.5 1127 81 C1127.33 81 1127.66 81 1128 81 C1128 72.75 1128 64.5 1128 56 C1127.67 56 1127.34 56 1127 56 Z M1122 114 C1122 121.26 1122 128.52 1122 136 C1122.33 136 1122.66 136 1123 136 C1123 128.74 1123 121.48 1123 114 C1122.67 114 1122.34 114 1122 114 Z M1117 169 C1117 176.92 1117 184.84 1117 193 C1117.33 193 1117.66 193 1118 193 C1118 185.08 1118 177.16 1118 169 C1117.67 169 1117.34 169 1117 169 Z M1112 224 C1112 229.61 1112 235.22 1112 241 C1112.33 241 1112.66 241 1113 241 C1113 235.39 1113 229.78 1113 224 C1112.67 224 1112.34 224 1112 224 Z M1107 281 C1107 287.93 1107 294.86 1107 302 C1107.33 302 1107.66 302 1108 302 C1108 295.07 1108 288.14 1108 281 C1107.67 281 1107.34 281 1107 281 Z M1102 336 C1102 342.93 1102 349.86 1102 357 C1102.33 357 1102.66 357 1103 357 C1103 350.07 1103 343.14 1103 336 C1102.67 336 1102.34 336 1102 336 Z M1097 394 C1097 400.6 1097 407.2 1097 414 C1097.33 414 1097.66 414 1098 414 C1098 407.4 1098 400.8 1098 394 C1097.67 394 1097.34 394 1097 394 Z M1092 449 C1092 456.92 1092 464.84 1092 473 C1092.33 473 1092.66 473 1093 473 C1093 465.08 1093 457.16 1093 449 C1092.67 449 1092.34 449 1092 449 Z M1087 504 C1087 512.25 1087 520.5 1087 529 C1087.33 529 1087.66 529 1088 529 C1088 520.75 1088 512.5 1088 504 C1087.67 504 1087.34 504 1087 504 Z M1082 561 C1082 567.93 1082 574.86 1082 582 C1082.33 582 1082.66 582 1083 582 C1083 575.07 1083 568.14 1083 561 C1082.67 561 1082.34 561 1082 561 Z M1077 616 C1077 624.25 1077 632.5 1077 641 C1077.33 641 1077.66 641 1078 641 C1078 632.75 1078 624.5 1078 616 C1077.67 616 1077.34 616 1077 616 Z M1072 675 C1072 681.27 1072 687.54 1072 694 C1072.33 694 1072.66 694 1073 694 C1073 687.73 1073 681.46 1073 675 C1072.67 675 1072.34 675 1072 675 Z M1067 729 C1067 736.92 1067 744.84 1067 753 C1067.33 753 1067.66 753 1068 753 C1068 745.08 1068 737.16 1068 729 C1067.67 729 1067.34 729 1067 729 Z M1062 784 C1062 791.59 1062 799.18 1062 807 C1062.33 807 1062.66 807 1063 807 C1063 799.41 1063 791.82 1063 784 C1062.67 784 1062.34 784 1062 784 Z M1057 841 C1057 847.93 1057 854.86 1057 862 C1057.33 862 1057.66 862 1058 862 C1058 855.07 1058 848.14 1058 841 C1057.67 841 1057.34 841 1057 841 Z M1052 896 C1052 902.93 1052 909.86 1052 917 C1052.33 917 1052.66 917 1053 917 C1053 910.07 1053 903.14 1053 896 C1052.67 896 1052.34 896 1052 896 Z M1047 954 C1047 960.6 1047 967.2 1047 974 C1047.33 974 1047.66 974 1048 974 C1048 967.4 1048 960.8 1048 954 C1047.67 954 1047.34 954 1047 954 Z M1042 1009 C1042 1016.92 1042 1024.84 1042 1033 C1042.33 1033 1042.66 1033 1043 1033 C1043 1025.08 1043 1017.16 1043 1009 C1042.67 1009 1042.34 1009 1042 1009 Z M1037 1067 C1037 1073.6 1037 1080.2 1037 1087 C1037.33 1087 1037.66 1087 1038 1087 C1038 1080.4 1038 1073.8 1038 1067 C1037.67 1067 1037.34 1067 1037 1067 Z M1032 1121 C1032 1127.93 1032 1134.86 1032 1142 C1032.33 1142 1032.66 1142 1033 1142 C1033 1135.07 1033 1128.14 1033 1121 C1032.67 1121 1032.34 1121 1032 1121 Z M125 1157 C129 1158 129 1158 129 1158 Z M215 1182 C219 1183 219 1183 219 1183 Z M305 1207 C309 1208 309 1208 309 1208 Z M395 1232 C399 1233 399 1233 399 1233 Z M485 1257 C489 1258 489 1258 489 1258 Z " fill="#0070B3" transform="translate(72,0)"/>
<path d="M0 0 C15.03 -0.01 30.06 -0.02 45.09 -0.03 C62.15 -0.05 79.22 -0.05 96.29 -0.05 C105 -0.05 113.71 -0.05 122.42 -0.06 C129.62 -0.07 136.83 -0.08 144.04 -0.07 C147.67 -0.07 151.31 -0.07 154.94 -0.07 C158.84 -0.08 162.74 -0.08 166.64 -0.07 C167.78 -0.07 168.93 -0.08 170.1 -0.09 C171.13 -0.08 172.16 -0.08 173.23 -0.07 C174.12 -0.07 175.01 -0.07 175.93 -0.07 C178.06 0.18 178.06 0.18 180.06 2.18 C180.07 4.67 179.97 7.02 179.75 9.49 C179.6 11.46 179.6 11.46 179.45 13.48 C179.06 17.18 179.06 17.18 178.54 19.75 C177.95 22.76 177.83 25.68 177.69 28.74 C177.26 36.81 176.43 44.83 175.56 52.86 C175.43 54.09 175.3 55.32 175.17 56.59 C174.19 65.6 174.19 65.6 173.56 68.55 C172.89 72.12 172.64 75.71 172.38 79.34 C172.26 80.95 172.13 82.57 172.01 84.18 C171.82 86.7 171.63 89.22 171.44 91.74 C170.79 100.45 170.05 109.02 168.49 117.62 C167.75 122.09 167.64 126.58 167.5 131.11 C167.3 135.75 166.87 139.87 165.06 144.18 C162.44 146.15 162.44 146.15 159.06 147.68 C158.45 147.96 157.84 148.25 157.21 148.54 C151.51 151.12 145.66 153.34 139.81 155.55 C134.36 157.62 129.14 159.95 123.89 162.48 C118.7 164.95 113.41 167.08 108.06 169.18 C102.13 171.51 96.31 173.93 90.56 176.68 C83.94 179.85 77.18 182.57 70.35 185.26 C64.41 187.6 58.64 190.15 52.87 192.88 C50.29 194.07 47.71 195.15 45.06 196.18 C41.41 197.6 37.86 199.19 34.31 200.86 C28.31 203.68 22.21 206.19 16.06 208.68 C10.17 211.06 4.31 213.45 -1.44 216.18 C-8.13 219.35 -15 222.08 -21.86 224.86 C-26.78 226.86 -31.64 228.91 -36.44 231.18 C-43.13 234.35 -50 237.08 -56.86 239.86 C-61.76 241.85 -66.6 243.9 -71.37 246.18 C-78.33 249.48 -85.52 252.19 -92.72 254.93 C-97.65 256.82 -102.41 258.83 -107.1 261.26 C-110.03 262.72 -113.07 263.87 -116.12 265.05 C-122.18 267.42 -128.08 270.05 -133.97 272.81 C-137.32 274.35 -140.72 275.71 -144.15 277.05 C-147.74 278.5 -151.27 280.06 -154.81 281.61 C-159.8 283.81 -164.79 285.99 -169.81 288.11 C-170.76 288.52 -171.7 288.92 -172.68 289.33 C-174.94 290.18 -174.94 290.18 -176.94 290.18 C-176.61 290.84 -176.28 291.5 -175.94 292.18 C-175.24 292.18 -174.55 292.18 -173.84 292.18 C-132.9 292.15 -91.96 292.14 -51.01 292.13 C-46.1 292.13 -41.19 292.12 -36.28 292.12 C-35.3 292.12 -34.33 292.12 -33.32 292.12 C-17.47 292.12 -1.61 292.11 14.24 292.1 C30.49 292.09 46.74 292.09 63 292.08 C73.03 292.08 83.07 292.08 93.11 292.07 C99.98 292.06 106.85 292.06 113.73 292.06 C117.7 292.06 121.67 292.06 125.64 292.06 C129.27 292.05 132.9 292.05 136.53 292.06 C138.48 292.06 140.43 292.05 142.38 292.05 C143.52 292.05 144.66 292.05 145.83 292.05 C147.32 292.05 147.32 292.05 148.84 292.05 C151.06 292.18 151.06 292.18 152.06 293.18 C153.03 307.77 151.14 322.44 149.76 336.94 C149.42 340.59 149.09 344.23 148.75 347.88 C148.61 349.42 148.47 350.95 148.33 352.49 C148.22 353.66 148.22 353.66 148.11 354.85 C147.89 357.26 147.67 359.67 147.45 362.08 C145.75 380.52 144.12 398.96 142.5 417.41 C142.25 420.26 142 423.11 141.75 425.96 C138.86 458.82 136.06 491.68 133.28 524.54 C130.22 560.76 127.1 596.97 123.88 633.17 C123.56 636.8 123.24 640.44 122.92 644.07 C122.84 644.96 122.76 645.84 122.68 646.75 C121.59 659 120.55 671.26 119.55 683.52 C119.14 688.43 118.73 693.34 118.32 698.25 C117.95 702.79 117.58 707.33 117.22 711.87 C117.06 713.96 116.89 716.04 116.71 718.12 C116.5 720.63 116.3 723.13 116.11 725.64 C116.02 726.73 115.93 727.82 115.83 728.95 C115.75 729.89 115.68 730.84 115.6 731.81 C114.97 734.58 114.32 735.5 112.06 737.18 C110.26 737.97 110.26 737.97 108.18 738.58 C107.36 738.82 106.55 739.07 105.7 739.32 C104.33 739.71 104.33 739.71 102.93 740.11 C101.44 740.55 101.44 740.55 99.93 741 C96.99 741.87 94.04 742.73 91.1 743.58 C87.36 744.67 83.63 745.78 79.89 746.88 C70.24 749.73 60.59 752.55 50.93 755.38 C47.29 756.44 43.64 757.51 40 758.58 C23.52 763.41 7.05 768.22 -9.49 772.82 C-26.8 777.63 -44.01 782.78 -61.23 787.9 C-62.09 788.16 -62.95 788.41 -63.83 788.67 C-71.88 791.07 -79.94 793.46 -87.99 795.86 C-123.66 806.48 -123.66 806.48 -140.69 811.03 C-146.21 812.51 -151.67 814.16 -157.12 815.86 C-159.83 816.71 -162.54 817.55 -165.26 818.37 C-167.1 818.92 -168.94 819.5 -170.77 820.09 C-171.71 820.37 -172.65 820.65 -173.61 820.95 C-174.44 821.21 -175.27 821.47 -176.13 821.74 C-184.45 823.05 -192.74 819.65 -200.62 817.3 C-201.99 816.9 -203.36 816.5 -204.73 816.09 C-208.39 815.01 -212.04 813.93 -215.7 812.84 C-219.36 811.75 -223.02 810.67 -226.69 809.59 C-234.47 807.29 -242.25 804.98 -250.02 802.67 C-258.91 800.03 -267.8 797.4 -276.69 794.76 C-278.07 794.36 -278.07 794.36 -279.47 793.94 C-299.1 788.12 -318.74 782.34 -338.38 776.57 C-353.57 772.11 -368.75 767.64 -383.94 763.18 C-385.41 762.74 -385.41 762.74 -386.91 762.3 C-399.22 758.68 -411.53 755.06 -423.83 751.43 C-428.75 749.98 -433.67 748.53 -438.59 747.08 C-443.17 745.74 -447.76 744.39 -452.34 743.03 C-454.02 742.54 -455.7 742.04 -457.38 741.55 C-459.69 740.87 -461.99 740.19 -464.3 739.51 C-464.96 739.31 -465.62 739.12 -466.3 738.92 C-478.95 735.17 -478.95 735.17 -481.94 732.18 C-482.31 729.81 -482.57 727.54 -482.75 725.16 C-482.82 724.4 -482.88 723.64 -482.95 722.86 C-483.18 720.21 -483.39 717.57 -483.61 714.92 C-483.77 712.96 -483.94 711 -484.11 709.03 C-484.5 704.45 -484.88 699.86 -485.26 695.27 C-485.95 687.01 -486.65 678.75 -487.35 670.49 C-488.83 653.17 -490.29 635.85 -491.74 618.53 C-491.9 616.62 -492.06 614.72 -492.22 612.82 C-492.34 611.4 -492.34 611.4 -492.46 609.95 C-493.11 602.19 -493.77 594.42 -494.42 586.66 C-495.06 579.08 -495.7 571.51 -496.33 563.93 C-496.71 559.45 -497.09 554.96 -497.47 550.47 C-497.82 546.29 -498.17 542.1 -498.52 537.92 C-498.65 536.39 -498.78 534.86 -498.91 533.33 C-499.08 531.24 -499.26 529.15 -499.43 527.06 C-499.53 525.89 -499.63 524.72 -499.73 523.52 C-500.32 513.95 -500.32 513.95 -498.94 511.18 C-451.09 511.18 -403.24 511.18 -353.94 511.18 C-352.41 514.99 -351.67 516.94 -351.37 520.78 C-351.29 521.67 -351.22 522.56 -351.14 523.48 C-351.06 524.45 -350.99 525.42 -350.91 526.41 C-350.83 527.44 -350.74 528.47 -350.66 529.53 C-350.47 531.76 -350.3 533.99 -350.12 536.21 C-349.84 539.74 -349.55 543.27 -349.26 546.79 C-348.54 555.55 -347.83 564.3 -347.13 573.06 C-346.53 580.46 -345.93 587.86 -345.32 595.26 C-345.03 598.74 -344.76 602.21 -344.48 605.69 C-344.31 607.82 -344.13 609.95 -343.96 612.07 C-343.88 613.04 -343.81 614.01 -343.73 615.01 C-343.66 615.9 -343.58 616.79 -343.5 617.71 C-343.44 618.48 -343.38 619.25 -343.32 620.04 C-342.89 622.42 -342.2 624.12 -340.94 626.18 C-338.82 627.21 -338.82 627.21 -336.23 627.75 C-335.23 628 -334.23 628.25 -333.2 628.51 C-331.53 628.9 -331.53 628.9 -329.83 629.29 C-328.65 629.58 -327.48 629.87 -326.26 630.17 C-323.66 630.81 -321.06 631.44 -318.45 632.06 C-314.27 633.06 -310.08 634.08 -305.9 635.11 C-301.34 636.22 -296.78 637.34 -292.22 638.44 C-279.24 641.6 -266.29 644.83 -253.35 648.09 C-251.34 648.59 -249.33 649.1 -247.32 649.6 C-239.36 651.6 -231.39 653.61 -223.43 655.61 C-218.71 656.8 -213.99 657.98 -209.27 659.16 C-207.52 659.6 -205.77 660.04 -204.02 660.48 C-201.61 661.09 -199.2 661.7 -196.79 662.3 C-196.1 662.48 -195.4 662.65 -194.68 662.83 C-187.34 664.66 -181.99 665.57 -174.64 663.44 C-173.6 663.14 -173.6 663.14 -172.54 662.84 C-170.27 662.19 -168.01 661.53 -165.74 660.86 C-164.13 660.4 -162.52 659.94 -160.91 659.48 C-157.57 658.53 -154.23 657.57 -150.9 656.6 C-144.02 654.62 -137.12 652.72 -130.21 650.82 C-126.51 649.8 -122.8 648.77 -119.09 647.74 C-118.36 647.54 -117.62 647.34 -116.86 647.12 C-114.59 646.5 -112.33 645.87 -110.06 645.24 C-109.29 645.03 -108.51 644.81 -107.71 644.59 C-87.48 638.98 -67.25 633.35 -47.11 627.42 C-39.36 625.15 -31.59 623 -23.77 620.99 C-21.06 620.46 -21.06 620.46 -19.94 619.18 C-18.66 609.4 -18.4 599.52 -17.94 589.68 C-17.01 570.15 -17.01 570.15 -16.15 562.43 C-15.71 557.82 -15.64 553.18 -15.5 548.55 C-15.15 538.44 -14.64 528.34 -14 518.24 C-13.96 517.57 -13.91 516.89 -13.87 516.2 C-13.28 506.89 -12.59 497.6 -11.87 488.3 C-11.09 478.21 -10.6 468.13 -10.26 458.02 C-10.04 451.38 -9.68 444.81 -9.02 438.2 C-8.99 437.54 -8.97 436.87 -8.94 436.18 C-19.94 425.17 -86.73 434.15 -102.64 434.15 C-109.76 434.15 -116.87 434.16 -123.98 434.17 C-134.26 434.18 -144.53 434.19 -154.81 434.19 C-155.9 434.19 -156.98 434.19 -158.1 434.19 C-202.32 434.19 -246.53 433.98 -290.75 433.79 C-299.85 433.75 -308.95 433.71 -318.05 433.68 C-367.71 433.49 -417.36 433.3 -467.02 432.82 C-470.83 432.78 -474.64 432.75 -478.45 432.72 C-482.81 432.69 -487.16 432.65 -491.52 432.6 C-493.1 432.58 -494.67 432.57 -496.25 432.56 C-498.37 432.54 -500.5 432.52 -502.62 432.49 C-503.8 432.48 -504.98 432.46 -506.2 432.45 C-508.94 432.18 -508.94 432.18 -510.94 430.18 C-511.38 427.78 -511.69 425.47 -511.94 423.05 C-512.02 422.31 -512.1 421.57 -512.18 420.81 C-513.54 407.9 -514.71 394.95 -515.31 381.98 C-515.35 381.12 -515.39 380.25 -515.44 379.36 C-515.48 378.36 -515.48 378.36 -515.53 377.33 C-515.79 372.01 -516.27 366.75 -516.87 361.47 C-518.04 350.78 -518.79 340.09 -519.5 329.36 C-519.69 326.58 -519.88 323.79 -520.07 321 C-520.19 319.21 -520.31 317.42 -520.43 315.63 C-520.69 311.69 -520.96 307.75 -521.28 303.81 C-521.38 302.54 -521.48 301.28 -521.59 299.98 C-521.68 298.89 -521.77 297.81 -521.87 296.69 C-521.94 294.18 -521.94 294.18 -520.94 292.18 C-519.13 291.37 -517.29 290.66 -515.44 289.99 C-510.15 288.02 -504.91 285.98 -499.69 283.84 C-498.62 283.4 -498.62 283.4 -497.53 282.95 C-496.07 282.35 -494.6 281.75 -493.14 281.15 C-490.94 280.24 -488.73 279.34 -486.53 278.44 C-478.92 275.31 -471.42 272.05 -463.97 268.56 C-459.05 266.32 -454.03 264.34 -449 262.36 C-446.82 261.5 -444.64 260.63 -442.46 259.77 C-441.37 259.34 -440.28 258.91 -439.17 258.46 C-423.25 252.19 -423.25 252.19 -407.62 245.24 C-398.26 240.81 -388.55 237.19 -378.93 233.37 C-372.24 230.7 -365.59 227.94 -358.94 225.18 C-357.31 224.5 -357.31 224.5 -355.65 223.81 C-351.93 222.26 -348.2 220.71 -344.47 219.15 C-338.93 216.84 -333.39 214.54 -327.84 212.25 C-324.3 210.79 -320.76 209.33 -317.23 207.87 C-315.41 207.12 -313.59 206.37 -311.77 205.62 C-302.4 201.76 -293.09 197.84 -283.91 193.52 C-279.77 191.65 -275.54 190.06 -271.28 188.45 C-265.26 186.16 -259.32 183.65 -253.37 181.18 C-252.14 180.66 -250.9 180.15 -249.66 179.64 C-241.13 176.1 -232.6 172.54 -224.07 168.98 C-219.17 166.94 -214.27 164.9 -209.36 162.87 C-206.72 161.77 -204.08 160.67 -201.45 159.58 C-200.11 159.02 -198.77 158.46 -197.43 157.91 C-188.74 154.32 -180.28 150.52 -171.94 146.18 C-171.94 145.85 -171.94 145.52 -171.94 145.18 C-180.86 144.27 -189.7 144.03 -198.67 144.02 C-200.12 144.01 -201.57 144.01 -203.03 144 C-206.99 143.99 -210.96 143.98 -214.92 143.98 C-219.21 143.97 -223.49 143.96 -227.78 143.94 C-235.19 143.92 -242.61 143.9 -250.02 143.89 C-260.74 143.86 -271.47 143.84 -282.19 143.81 C-299.58 143.76 -316.98 143.72 -334.38 143.67 C-351.27 143.64 -368.17 143.59 -385.06 143.55 C-386.62 143.55 -386.62 143.55 -388.22 143.54 C-393.45 143.53 -398.68 143.51 -403.91 143.5 C-447.25 143.39 -490.59 143.28 -533.94 143.18 C-535.21 138.94 -536.24 134.86 -536.78 130.47 C-536.92 129.38 -537.06 128.3 -537.2 127.18 C-537.34 126 -537.49 124.83 -537.63 123.62 C-537.79 122.37 -537.94 121.12 -538.11 119.83 C-538.53 116.41 -538.95 113 -539.37 109.58 C-539.81 106 -540.25 102.42 -540.7 98.84 C-541.44 92.83 -542.18 86.82 -542.92 80.81 C-543.78 73.87 -544.63 66.92 -545.5 59.98 C-546.33 53.29 -547.15 46.6 -547.98 39.91 C-548.33 37.07 -548.68 34.23 -549.03 31.38 C-549.53 27.41 -550.01 23.44 -550.5 19.48 C-550.65 18.3 -550.79 17.12 -550.94 15.91 C-551.07 14.83 -551.21 13.74 -551.34 12.63 C-551.46 11.69 -551.57 10.75 -551.69 9.79 C-551.93 7.22 -552.05 4.75 -551.94 2.18 C-550.28 0.52 -548.34 1.05 -546.06 1.04 C-544.99 1.03 -543.93 1.03 -542.83 1.02 C-541.05 1.02 -541.05 1.02 -539.23 1.02 C-537.98 1.01 -536.72 1.01 -535.43 1 C-531.92 0.99 -528.41 0.98 -524.9 0.98 C-521.1 0.97 -517.29 0.96 -513.49 0.94 C-505.93 0.92 -498.37 0.9 -490.81 0.88 C-484.53 0.87 -478.24 0.85 -471.96 0.83 C-471.06 0.83 -470.15 0.82 -469.22 0.82 C-467.38 0.82 -465.53 0.81 -463.69 0.81 C-441.86 0.74 -420.03 0.69 -398.2 0.64 C-387.88 0.61 -377.57 0.59 -367.26 0.56 C-260.13 0.29 -153.01 0.09 0 0 Z " fill="#F9FCFE" transform="translate(821.9360760524869,227.82255744189024)"/>
<path d="M0 0 C0.76 0 1.52 0.01 2.3 0.02 C3.11 0.01 3.92 0.01 4.75 0.01 C7.48 0 10.22 0.01 12.95 0.02 C14.92 0.02 16.89 0.01 18.86 0.01 C24.29 0 29.72 0.01 35.15 0.02 C41 0.02 46.85 0.02 52.7 0.02 C64.17 0.01 75.64 0.02 87.11 0.03 C99.77 0.03 112.44 0.04 125.1 0.04 C150.29 0.03 175.47 0.04 200.66 0.06 C223.06 0.07 245.45 0.08 267.85 0.08 C269.29 0.08 270.72 0.08 272.16 0.08 C272.87 0.08 273.58 0.08 274.32 0.08 C277.89 0.08 281.47 0.08 285.05 0.08 C285.76 0.08 286.46 0.08 287.19 0.08 C305.88 0.08 324.58 0.08 343.27 0.09 C344.26 0.09 344.26 0.09 345.28 0.09 C348.62 0.09 351.96 0.09 355.29 0.09 C364.61 0.1 373.92 0.1 383.23 0.1 C394.56 0.1 405.9 0.1 417.24 0.11 C423.03 0.12 428.82 0.12 434.61 0.12 C439.9 0.12 445.19 0.12 450.48 0.13 C452.41 0.13 454.33 0.13 456.25 0.13 C458.85 0.13 461.45 0.13 464.04 0.14 C465.19 0.13 465.19 0.13 466.35 0.13 C471.5 0.15 471.5 0.15 472.61 1.26 C472.59 3.06 472.49 4.86 472.36 6.66 C472.28 7.81 472.2 8.96 472.12 10.14 C472.02 11.4 471.93 12.66 471.83 13.96 C471.69 15.92 471.69 15.92 471.55 17.92 C470.57 31.32 469.4 44.69 468.2 58.07 C467.88 61.64 467.56 65.21 467.24 68.79 C466.69 75.02 466.13 81.26 465.57 87.49 C464.74 96.77 463.91 106.06 463.08 115.34 C461.68 131.01 460.28 146.68 458.88 162.35 C457.48 177.97 456.09 193.59 454.69 209.21 C454.56 210.68 454.56 210.68 454.42 212.17 C453.98 217.16 453.53 222.14 453.09 227.12 C449.94 262.43 446.78 297.74 443.62 333.05 C440.6 366.86 437.57 400.68 434.55 434.49 C434.46 435.52 434.37 436.55 434.27 437.61 C433.44 446.95 432.6 456.29 431.77 465.63 C429.76 488.17 427.74 510.71 425.73 533.24 C425.64 534.24 425.55 535.25 425.46 536.28 C417.38 626.7 409.29 717.13 393.86 889.63 C393.55 893.06 393.24 896.49 392.94 899.92 C392.3 906.99 391.67 914.07 391.03 921.14 C390.71 924.72 390.39 928.3 390.07 931.89 C389.98 932.91 389.98 932.91 389.88 933.97 C389.02 943.63 388.17 953.3 387.34 962.97 C386.94 967.58 386.54 972.2 386.14 976.81 C385.83 980.4 385.52 983.98 385.22 987.57 C385.03 989.7 384.85 991.84 384.66 993.97 C384.58 994.92 384.51 995.87 384.43 996.85 C383.98 1001.88 383.4 1006.53 381.61 1011.26 C378.66 1012.86 378.66 1012.86 374.8 1013.9 C374.1 1014.1 373.39 1014.29 372.66 1014.5 C370.29 1015.16 367.9 1015.77 365.52 1016.39 C363.82 1016.85 362.13 1017.32 360.43 1017.78 C356.78 1018.78 353.12 1019.77 349.45 1020.73 C343.61 1022.28 337.77 1023.86 331.94 1025.45 C324.86 1027.38 317.77 1029.3 310.68 1031.2 C298.47 1034.48 286.28 1037.82 274.1 1041.21 C273.24 1041.45 272.38 1041.69 271.5 1041.94 C268.05 1042.89 264.61 1043.85 261.17 1044.81 C251.73 1047.44 242.28 1050.06 232.83 1052.67 C231.13 1053.14 229.43 1053.61 227.73 1054.08 C208.22 1059.48 188.71 1064.87 169.2 1070.26 C148.36 1076.01 127.53 1081.78 106.7 1087.57 C102.22 1088.81 97.74 1090.06 93.26 1091.3 C89.6 1092.32 85.93 1093.34 82.26 1094.35 C81.54 1094.55 80.82 1094.75 80.07 1094.96 C71.01 1097.48 61.95 1100.01 52.89 1102.55 C46.77 1104.26 40.65 1105.97 34.53 1107.68 C30.23 1108.88 25.93 1110.09 21.63 1111.31 C18.38 1112.22 15.13 1113.12 11.88 1114.03 C10.72 1114.36 9.56 1114.69 8.36 1115.03 C7.29 1115.33 6.22 1115.62 5.11 1115.93 C4.19 1116.19 3.27 1116.45 2.31 1116.72 C-0.67 1117.32 -3.36 1117.43 -6.39 1117.26 C-7.39 1116.26 -7.39 1116.26 -7.51 1113.91 C-7.51 1112.86 -7.51 1111.81 -7.5 1110.73 C-7.5 1109.53 -7.5 1108.32 -7.5 1107.09 C-7.5 1105.74 -7.49 1104.4 -7.49 1103.06 C-7.49 1101.65 -7.48 1100.24 -7.48 1098.84 C-7.48 1095.8 -7.47 1092.77 -7.47 1089.74 C-7.45 1084.94 -7.45 1080.15 -7.44 1075.36 C-7.43 1064.31 -7.41 1053.27 -7.39 1042.23 C-7.37 1032.11 -7.35 1022 -7.34 1011.88 C-7.33 1007.11 -7.32 1002.35 -7.31 997.58 C-7.3 994.61 -7.3 991.65 -7.3 988.69 C-7.29 987.31 -7.29 985.93 -7.28 984.55 C-7.28 982.68 -7.28 980.8 -7.28 978.93 C-7.27 977.35 -7.27 977.35 -7.27 975.74 C-7.22 973.26 -7.22 973.26 -8.39 971.26 C-7.34 971 -6.3 970.73 -5.22 970.45 C4.59 967.91 14.36 965.23 24.11 962.45 C25.66 962.01 25.66 962.01 27.24 961.56 C35.02 959.33 42.78 957.03 50.53 954.72 C61.92 951.34 73.31 948.01 84.72 944.7 C85.55 944.45 86.39 944.21 87.25 943.96 C95.03 941.7 102.82 939.44 110.61 937.18 C115.75 935.69 120.89 934.19 126.03 932.7 C127.27 932.34 127.27 932.34 128.54 931.97 C138.05 929.2 147.54 926.4 157 923.49 C164.28 921.24 171.59 919.12 178.94 917.09 C196.54 912.21 214.05 907.03 231.58 901.89 C235.31 900.8 239.04 899.71 242.76 898.62 C246.4 897.55 250.03 896.49 253.67 895.42 C255.38 894.92 257.1 894.42 258.81 893.92 C261.21 893.22 263.61 892.51 266 891.81 C267.12 891.48 267.12 891.48 268.26 891.15 C273.93 889.48 279.58 887.74 285.21 885.95 C287.61 885.26 287.61 885.26 289.61 885.26 C289.66 884.63 289.72 884 289.77 883.34 C293.2 842.29 296.72 801.24 300.3 760.2 C300.4 759 300.51 757.8 300.61 756.56 C303.11 727.87 305.62 699.18 308.13 670.49 C309.03 660.2 309.93 649.91 310.83 639.62 C311.12 636.23 311.42 632.84 311.71 629.45 C314.72 595.06 317.71 560.67 320.57 526.27 C321.61 513.86 322.66 501.46 323.86 489.06 C323.95 488.05 324.05 487.03 324.15 485.98 C324.59 481.46 325.03 476.94 325.49 472.42 C325.64 470.89 325.8 469.36 325.95 467.83 C326.14 465.94 326.14 465.94 326.34 464.01 C326.75 456.78 326.61 449.51 326.61 442.26 C217.71 442.26 108.81 442.26 -3.39 442.26 C-2.73 441.93 -2.07 441.6 -1.39 441.26 C-1.39 440.6 -1.39 439.94 -1.39 439.26 C0.51 438.45 2.4 437.64 4.3 436.83 C4.91 436.56 5.52 436.3 6.15 436.03 C10.04 434.36 13.93 432.7 17.83 431.04 C25.98 427.56 34.12 424.07 42.17 420.37 C48.27 417.61 54.49 415.12 60.69 412.6 C67.1 409.99 73.48 407.37 79.73 404.39 C86.8 401.06 94.09 398.29 101.39 395.51 C105.5 393.93 109.55 392.36 113.46 390.33 C120.29 386.8 127.57 384.18 134.7 381.33 C141.75 378.52 141.75 378.52 148.61 375.26 C155.39 371.75 162.62 369.16 169.7 366.33 C176.75 363.52 176.75 363.52 183.61 360.26 C190.39 356.75 197.62 354.16 204.7 351.33 C210.2 349.12 215.59 346.87 220.85 344.14 C223.78 342.68 226.81 341.52 229.86 340.33 C231.18 339.8 232.51 339.28 233.83 338.76 C234.48 338.5 235.12 338.25 235.79 337.99 C243.54 334.92 251.15 331.58 258.73 328.14 C267.84 324.01 277.03 320.09 286.24 316.22 C292.8 313.46 299.32 310.65 305.82 307.76 C311.98 305.05 318.24 302.6 324.52 300.19 C332.97 296.98 332.97 296.98 340.61 292.26 C341.83 289.46 341.83 289.46 341.61 286.26 C341.69 284.98 341.77 283.7 341.86 282.38 C341.96 280.28 342.05 278.17 342.13 276.07 C342.33 271.92 342.81 267.95 343.55 263.86 C345 255.57 345.5 247.21 346.11 238.83 C346.8 229.35 347.57 220.01 349.12 210.63 C350.15 203.55 350.57 196.4 351.11 189.26 C351.83 179.74 352.59 170.32 354.21 160.9 C354.71 157.62 354.76 154.56 354.61 151.26 C350.83 150.38 347.33 150.14 343.46 150.14 C341.59 150.14 341.59 150.14 339.68 150.14 C338.3 150.14 336.92 150.15 335.54 150.15 C334.08 150.15 332.61 150.15 331.14 150.15 C327.11 150.15 323.08 150.16 319.05 150.16 C314.7 150.17 310.35 150.17 306 150.17 C298.47 150.17 290.93 150.18 283.4 150.19 C272.5 150.2 261.61 150.21 250.71 150.21 C233.03 150.22 215.35 150.23 197.67 150.24 C196.08 150.24 196.08 150.24 194.46 150.25 C186.95 150.25 179.44 150.26 171.92 150.26 C163.33 150.27 154.75 150.28 146.16 150.28 C145.1 150.29 144.04 150.29 142.95 150.29 C125.34 150.3 107.72 150.31 90.1 150.32 C79.23 150.32 68.35 150.33 57.48 150.34 C50.04 150.35 42.59 150.36 35.15 150.36 C30.85 150.36 26.55 150.36 22.25 150.37 C18.32 150.38 14.39 150.38 10.46 150.38 C9.03 150.38 7.6 150.38 6.17 150.38 C4.25 150.39 2.32 150.39 0.39 150.38 C-0.69 150.39 -1.76 150.39 -2.87 150.39 C-5.39 150.26 -5.39 150.26 -7.39 149.26 C-7.44 130.13 -7.47 111 -7.49 91.87 C-7.5 82.99 -7.52 74.1 -7.54 65.22 C-7.56 57.48 -7.57 49.74 -7.58 42 C-7.58 37.9 -7.59 33.8 -7.6 29.7 C-7.62 25.84 -7.62 21.99 -7.62 18.13 C-7.62 16.71 -7.62 15.29 -7.63 13.88 C-7.64 11.95 -7.64 10.02 -7.63 8.09 C-7.63 7 -7.63 5.92 -7.64 4.81 C-7.15 -0.2 -4.37 0.03 0 0 Z " fill="#2CA7DC" transform="translate(646.3905672132969,78.73605594038963)"/>
<path d="M0 0 C0.66 0.33 1.32 0.66 2 1 C3.67 0.68 5.34 0.35 7 0 C8.9 -0.09 10.81 -0.13 12.72 -0.13 C13.87 -0.13 15.02 -0.13 16.2 -0.13 C17.46 -0.13 18.71 -0.13 20.01 -0.13 C21.36 -0.13 22.71 -0.13 24.07 -0.13 C27.78 -0.14 31.5 -0.13 35.21 -0.13 C39.22 -0.13 43.22 -0.13 47.23 -0.13 C55.08 -0.14 62.93 -0.14 70.77 -0.14 C77.15 -0.13 83.52 -0.13 89.9 -0.13 C91.26 -0.13 91.26 -0.13 92.65 -0.13 C94.49 -0.13 96.33 -0.13 98.17 -0.14 C115.44 -0.14 132.71 -0.13 149.99 -0.13 C164.82 -0.12 179.66 -0.13 194.49 -0.13 C211.7 -0.14 228.92 -0.14 246.14 -0.13 C247.97 -0.13 249.8 -0.13 251.64 -0.13 C252.54 -0.13 253.44 -0.13 254.37 -0.13 C260.74 -0.13 267.12 -0.13 273.49 -0.14 C281.25 -0.14 289 -0.14 296.76 -0.13 C300.72 -0.13 304.68 -0.13 308.65 -0.13 C312.27 -0.14 315.89 -0.13 319.51 -0.13 C321.45 -0.13 323.39 -0.13 325.34 -0.13 C326.47 -0.13 327.61 -0.13 328.78 -0.13 C330.27 -0.13 330.27 -0.13 331.78 -0.13 C334 0 334 0 335 1 C335.97 15.59 334.07 30.26 332.7 44.77 C332.36 48.41 332.02 52.06 331.69 55.7 C331.55 57.24 331.41 58.78 331.27 60.31 C331.16 61.48 331.16 61.48 331.05 62.67 C330.83 65.08 330.61 67.49 330.38 69.9 C328.68 88.34 327.06 106.78 325.44 125.23 C325.19 128.08 324.93 130.93 324.68 133.79 C321.79 166.64 318.99 199.5 316.22 232.37 C313.15 268.58 310.04 304.79 306.82 340.99 C306.5 344.62 306.17 348.26 305.85 351.89 C305.73 353.22 305.73 353.22 305.61 354.57 C304.53 366.83 303.49 379.08 302.48 391.35 C302.08 396.25 301.67 401.16 301.26 406.07 C300.88 410.61 300.52 415.15 300.16 419.7 C299.99 421.78 299.82 423.86 299.65 425.94 C299.44 428.45 299.24 430.96 299.05 433.46 C298.96 434.55 298.86 435.65 298.76 436.77 C298.69 437.71 298.61 438.66 298.53 439.63 C297.91 442.4 297.26 443.32 295 445 C293.2 445.79 293.2 445.79 291.11 446.4 C290.3 446.65 289.48 446.89 288.64 447.14 C287.73 447.4 286.81 447.67 285.87 447.94 C284.38 448.38 284.38 448.38 282.86 448.83 C279.92 449.69 276.98 450.55 274.03 451.41 C270.3 452.5 266.56 453.6 262.83 454.7 C253.18 457.55 243.52 460.37 233.87 463.2 C230.22 464.26 226.58 465.33 222.93 466.4 C206.46 471.23 189.99 476.04 173.45 480.64 C156.14 485.45 138.93 490.61 121.71 495.72 C120.85 495.98 119.99 496.23 119.1 496.5 C111.05 498.89 103 501.28 94.95 503.68 C59.27 514.3 59.27 514.3 42.25 518.85 C36.73 520.33 31.27 521.98 25.81 523.69 C23.1 524.53 20.39 525.37 17.68 526.19 C15.83 526.75 14 527.32 12.16 527.91 C11.23 528.19 10.29 528.48 9.32 528.77 C8.49 529.03 7.66 529.29 6.81 529.56 C-1.51 530.87 -9.81 527.47 -17.68 525.12 C-19.05 524.72 -20.42 524.32 -21.79 523.92 C-25.45 522.84 -29.11 521.75 -32.76 520.66 C-36.43 519.58 -40.09 518.5 -43.75 517.41 C-51.53 515.11 -59.31 512.81 -67.09 510.5 C-75.98 507.86 -84.86 505.22 -93.75 502.59 C-94.67 502.31 -95.59 502.04 -96.54 501.76 C-116.16 495.94 -135.8 490.17 -155.44 484.39 C-170.63 479.93 -185.81 475.47 -201 471 C-202.47 470.57 -202.47 470.57 -203.97 470.13 C-216.28 466.51 -228.59 462.88 -240.9 459.25 C-245.82 457.8 -250.73 456.35 -255.65 454.91 C-260.24 453.56 -264.82 452.21 -269.4 450.86 C-271.08 450.36 -272.76 449.87 -274.44 449.37 C-276.75 448.69 -279.06 448.01 -281.36 447.33 C-282.02 447.14 -282.68 446.94 -283.36 446.75 C-296.01 442.99 -296.01 442.99 -299 440 C-299.38 437.64 -299.63 435.36 -299.82 432.98 C-299.88 432.22 -299.95 431.46 -300.02 430.68 C-300.24 428.03 -300.46 425.39 -300.67 422.74 C-300.84 420.78 -301 418.82 -301.17 416.86 C-301.56 412.27 -301.95 407.68 -302.33 403.1 C-303.01 394.83 -303.71 386.57 -304.42 378.31 C-305.89 360.99 -307.35 343.67 -308.8 326.35 C-308.96 324.45 -309.12 322.54 -309.28 320.64 C-309.4 319.22 -309.4 319.22 -309.52 317.78 C-310.18 310.01 -310.83 302.25 -311.49 294.48 C-312.12 286.91 -312.76 279.33 -313.4 271.76 C-313.77 267.27 -314.15 262.78 -314.53 258.29 C-314.88 254.11 -315.23 249.92 -315.58 245.74 C-315.71 244.21 -315.84 242.68 -315.97 241.15 C-316.15 239.06 -316.32 236.97 -316.5 234.88 C-316.59 233.71 -316.69 232.55 -316.79 231.34 C-317.39 221.77 -317.39 221.77 -316 219 C-268.15 219 -220.3 219 -171 219 C-169.47 222.82 -168.74 224.77 -168.43 228.6 C-168.36 229.49 -168.28 230.38 -168.2 231.3 C-168.13 232.27 -168.05 233.24 -167.98 234.23 C-167.89 235.26 -167.81 236.29 -167.72 237.35 C-167.54 239.58 -167.36 241.81 -167.18 244.04 C-166.9 247.56 -166.62 251.09 -166.32 254.61 C-165.6 263.37 -164.9 272.12 -164.19 280.88 C-163.6 288.28 -162.99 295.68 -162.38 303.08 C-162.1 306.56 -161.82 310.04 -161.55 313.51 C-161.37 315.64 -161.2 317.77 -161.02 319.89 C-160.95 320.86 -160.87 321.83 -160.8 322.83 C-160.72 323.72 -160.65 324.61 -160.57 325.53 C-160.51 326.3 -160.44 327.07 -160.38 327.87 C-159.96 330.24 -159.26 331.95 -158 334 C-155.88 335.04 -155.88 335.04 -153.29 335.57 C-152.29 335.82 -151.29 336.07 -150.26 336.33 C-148.6 336.72 -148.6 336.72 -146.9 337.12 C-145.72 337.41 -144.54 337.7 -143.32 338 C-140.72 338.63 -138.12 339.26 -135.52 339.88 C-131.33 340.88 -127.15 341.9 -122.97 342.93 C-118.4 344.04 -113.84 345.16 -109.28 346.27 C-96.31 349.42 -83.36 352.65 -70.41 355.91 C-68.4 356.42 -66.39 356.92 -64.38 357.42 C-56.42 359.43 -48.46 361.43 -40.49 363.43 C-35.78 364.62 -31.06 365.81 -26.34 366.99 C-24.59 367.43 -22.84 367.87 -21.09 368.31 C-18.68 368.91 -16.27 369.52 -13.86 370.12 C-13.16 370.3 -12.46 370.47 -11.74 370.66 C-4.41 372.48 0.94 373.39 8.3 371.26 C8.99 371.06 9.68 370.87 10.39 370.66 C12.66 370.02 14.93 369.35 17.2 368.68 C18.8 368.22 20.41 367.76 22.02 367.3 C25.36 366.35 28.7 365.39 32.04 364.42 C38.92 362.44 45.82 360.54 52.72 358.64 C56.43 357.62 60.14 356.59 63.84 355.57 C64.58 355.36 65.32 355.16 66.08 354.95 C68.34 354.32 70.61 353.69 72.88 353.06 C73.65 352.85 74.42 352.63 75.22 352.41 C95.46 346.8 115.68 341.17 135.83 335.25 C143.58 332.97 151.34 330.82 159.16 328.81 C161.88 328.28 161.88 328.28 163 327 C164.27 317.22 164.53 307.34 165 297.5 C165.93 277.97 165.93 277.97 166.79 270.26 C167.22 265.64 167.3 261.01 167.44 256.38 C167.79 246.26 168.3 236.16 168.94 226.06 C168.98 225.39 169.02 224.71 169.07 224.02 C169.66 214.71 170.34 205.42 171.06 196.12 C171.85 186.03 172.34 175.95 172.67 165.84 C172.89 159.21 173.26 152.63 173.91 146.03 C173.94 145.36 173.97 144.69 174 144 C172.24 142.24 169.72 142.83 167.33 142.79 C166.09 142.77 164.85 142.75 163.57 142.73 C162.18 142.72 160.79 142.7 159.4 142.68 C157.93 142.66 156.47 142.64 155 142.62 C150.97 142.56 146.94 142.51 142.91 142.47 C140.38 142.44 137.85 142.41 135.32 142.37 C90.55 141.81 45.77 141.9 1 142 C-0.83 138.34 -0.41 134.05 -0.56 130.02 C-0.6 128.93 -0.65 127.84 -0.69 126.72 C-1.33 107.8 -1.06 88.86 -0.99 69.94 C-0.97 63.47 -0.95 57.01 -0.94 50.55 C-0.94 49.21 -0.94 49.21 -0.93 47.85 C-0.92 32.22 -1.28 16.62 -2 1 C-1.34 0.67 -0.68 0.34 0 0 Z " fill="#F9FCFE" transform="translate(639,520)"/>
<path d="M0 0 C1.05 5.16 1.14 10.11 1.13 15.35 C1.13 16.74 1.13 16.74 1.13 18.16 C1.14 21.22 1.14 24.28 1.13 27.34 C1.13 29.49 1.13 31.65 1.14 33.81 C1.14 38.34 1.14 42.88 1.13 47.42 C1.12 53.14 1.13 58.85 1.13 64.57 C1.17 105 1.17 105 0.55 125.04 C0.52 126.34 0.48 127.64 0.44 128.99 C0.13 137.6 0.13 137.6 -1 141 C-1.02 142.56 -0.97 144.12 -0.88 145.68 C-0.83 146.67 -0.78 147.65 -0.73 148.67 C-0.68 149.76 -0.62 150.86 -0.56 151.99 C-0.03 164.19 0.09 176.36 0.06 188.57 C0.06 189.93 0.06 189.93 0.06 191.32 C0.05 197.92 0.02 204.52 0 211.12 C-0.02 217.75 -0.04 224.37 -0.06 230.99 C-0.06 233.58 -0.07 236.16 -0.09 238.75 C-0.13 252.18 0.38 265.58 1 279 C-28.09 279.02 -57.19 279.04 -86.28 279.05 C-89.77 279.05 -93.27 279.05 -96.76 279.05 C-97.8 279.06 -97.8 279.06 -98.87 279.06 C-108.53 279.06 -118.2 279.07 -127.87 279.07 C-235.86 279.16 -235.86 279.16 -287.37 278.65 C-290.19 278.62 -293.02 278.6 -295.85 278.57 C-300.17 278.54 -304.5 278.49 -308.82 278.44 C-310.38 278.42 -311.94 278.41 -313.49 278.39 C-315.59 278.38 -317.68 278.35 -319.78 278.32 C-320.94 278.3 -322.1 278.29 -323.3 278.28 C-326 278 -326 278 -328 276 C-328.44 273.6 -328.76 271.29 -329 268.88 C-329.08 268.13 -329.16 267.39 -329.24 266.63 C-330.6 253.72 -331.77 240.77 -332.37 227.8 C-332.44 226.51 -332.44 226.51 -332.5 225.19 C-332.53 224.52 -332.56 223.85 -332.59 223.15 C-332.85 217.84 -333.33 212.58 -333.93 207.29 C-335.1 196.61 -335.85 185.91 -336.56 175.19 C-336.75 172.4 -336.94 169.61 -337.13 166.82 C-337.25 165.03 -337.37 163.24 -337.49 161.45 C-337.76 157.51 -338.03 153.57 -338.35 149.63 C-338.45 148.37 -338.55 147.1 -338.65 145.8 C-338.74 144.72 -338.84 143.63 -338.93 142.51 C-339 140 -339 140 -338 138 C-336.2 137.2 -334.35 136.48 -332.5 135.81 C-327.21 133.84 -321.97 131.8 -316.75 129.66 C-316.04 129.37 -315.32 129.08 -314.59 128.77 C-313.13 128.17 -311.67 127.57 -310.21 126.97 C-308 126.06 -305.8 125.16 -303.59 124.26 C-295.99 121.14 -288.49 117.87 -281.04 114.39 C-276.12 112.14 -271.1 110.16 -266.06 108.19 C-263.88 107.32 -261.7 106.46 -259.52 105.59 C-257.89 104.94 -257.89 104.94 -256.23 104.28 C-240.31 98.01 -240.31 98.01 -224.69 91.06 C-215.33 86.63 -205.62 83.01 -196 79.19 C-189.3 76.53 -182.65 73.76 -176 71 C-174.92 70.55 -173.83 70.1 -172.72 69.64 C-168.99 68.08 -165.26 66.53 -161.54 64.97 C-156 62.66 -150.45 60.36 -144.9 58.07 C-141.36 56.61 -137.83 55.15 -134.29 53.69 C-132.47 52.94 -130.66 52.19 -128.84 51.44 C-119.46 47.58 -110.16 43.66 -100.98 39.34 C-96.83 37.47 -92.6 35.88 -88.35 34.28 C-82.33 31.98 -76.39 29.48 -70.44 27 C-69.2 26.49 -67.96 25.97 -66.73 25.46 C-60.12 22.72 -53.51 19.96 -46.9 17.21 C-44.97 16.41 -43.05 15.6 -41.12 14.8 C-36.24 12.77 -31.36 10.73 -26.5 8.66 C-23.96 7.58 -21.41 6.51 -18.87 5.44 C-17.56 4.89 -16.26 4.33 -14.96 3.78 C-13.05 2.96 -11.13 2.15 -9.21 1.35 C-8.09 0.88 -6.97 0.4 -5.81 -0.09 C-3 -1 -3 -1 0 0 Z " fill="#E4E8E9" transform="translate(639,382)"/>
<path d="M0 0 C47.85 0 95.7 0 145 0 C146.53 3.82 147.26 5.77 147.57 9.6 C147.64 10.49 147.72 11.38 147.8 12.3 C147.87 13.27 147.95 14.24 148.02 15.23 C148.11 16.26 148.19 17.29 148.28 18.35 C148.46 20.58 148.64 22.81 148.82 25.04 C149.1 28.56 149.38 32.09 149.68 35.61 C150.4 44.37 151.1 53.12 151.81 61.88 C152.4 69.28 153.01 76.68 153.62 84.08 C153.9 87.56 154.18 91.04 154.45 94.51 C154.63 96.64 154.8 98.77 154.98 100.89 C155.05 101.86 155.13 102.83 155.2 103.83 C155.28 104.72 155.35 105.61 155.43 106.53 C155.49 107.3 155.56 108.07 155.62 108.87 C156.04 111.24 156.74 112.95 158 115 C160.12 116.04 160.12 116.04 162.71 116.57 C163.71 116.82 164.71 117.07 165.74 117.33 C166.85 117.59 167.96 117.85 169.1 118.12 C170.28 118.41 171.46 118.7 172.68 119 C175.28 119.63 177.88 120.26 180.48 120.88 C184.67 121.88 188.85 122.91 193.03 123.93 C198.4 125.25 203.77 126.56 209.14 127.87 C226.33 132.04 243.51 136.31 260.68 140.59 C266.62 142.07 272.57 143.54 278.52 145.01 C282.27 145.93 286.01 146.86 289.76 147.8 C291.51 148.23 293.26 148.67 295.02 149.1 C297.43 149.69 299.84 150.29 302.26 150.89 C303.31 151.15 303.31 151.15 304.38 151.41 C313.79 153.79 313.79 153.79 317 157 C317.1 158.94 317.13 160.89 317.13 162.84 C317.14 164.11 317.14 165.38 317.15 166.68 C317.15 168.1 317.15 169.52 317.15 170.94 C317.15 172.43 317.15 173.91 317.16 175.4 C317.16 179.44 317.17 183.48 317.17 187.53 C317.17 190.9 317.17 194.27 317.18 197.64 C317.18 205.58 317.19 213.53 317.19 221.48 C317.18 229.69 317.2 237.9 317.21 246.11 C317.22 253.15 317.23 260.19 317.23 267.23 C317.23 271.44 317.23 275.65 317.24 279.85 C317.25 283.81 317.25 287.77 317.24 291.73 C317.24 293.18 317.25 294.64 317.25 296.09 C317.26 298.07 317.25 300.05 317.25 302.03 C317.25 303.14 317.25 304.25 317.25 305.4 C317 308 317 308 315 310 C307.42 309.58 299.94 306.9 292.77 304.6 C281.75 301.14 270.69 297.81 259.61 294.56 C258.79 294.32 257.97 294.08 257.13 293.83 C252.81 292.56 248.5 291.29 244.18 290.03 C238.59 288.39 233.01 286.75 227.42 285.11 C225.5 284.55 223.58 283.98 221.65 283.42 C220.7 283.14 219.74 282.85 218.75 282.56 C215.84 281.71 212.93 280.85 210.02 280 C184.27 272.44 158.52 264.84 132.78 257.25 C121.89 254.03 111 250.82 100.11 247.62 C91.94 245.21 83.76 242.8 75.59 240.39 C70.64 238.93 65.7 237.48 60.75 236.02 C56.12 234.66 51.5 233.3 46.87 231.93 C45.17 231.43 43.47 230.93 41.77 230.43 C39.43 229.75 37.09 229.05 34.75 228.36 C33.74 228.07 33.74 228.07 32.71 227.77 C19.99 223.99 19.99 223.99 17 221 C16.62 218.64 16.37 216.36 16.18 213.98 C16.12 213.22 16.05 212.46 15.98 211.68 C15.76 209.03 15.54 206.39 15.33 203.74 C15.16 201.78 15 199.82 14.83 197.86 C14.44 193.27 14.05 188.68 13.67 184.1 C12.99 175.83 12.29 167.57 11.58 159.31 C10.11 141.99 8.65 124.67 7.2 107.35 C7.04 105.45 6.88 103.54 6.72 101.64 C6.64 100.69 6.56 99.75 6.48 98.78 C5.82 91.01 5.17 83.25 4.51 75.48 C3.88 67.91 3.24 60.33 2.6 52.76 C2.23 48.27 1.85 43.78 1.47 39.29 C1.12 35.11 0.77 30.92 0.42 26.74 C0.29 25.21 0.16 23.68 0.03 22.15 C-0.15 20.06 -0.32 17.97 -0.5 15.88 C-0.59 14.71 -0.69 13.55 -0.79 12.34 C-1.39 2.77 -1.39 2.77 0 0 Z " fill="#E4E8E9" transform="translate(323,739)"/>
<path d="M0 0 C1.28 -0 2.56 -0.01 3.88 -0.01 C5.31 -0.01 6.75 -0.01 8.19 -0.01 C9.7 -0.01 11.22 -0.01 12.73 -0.01 C16.91 -0.02 21.09 -0.02 25.26 -0.02 C29.76 -0.02 34.26 -0.02 38.76 -0.03 C47.58 -0.04 56.4 -0.04 65.22 -0.04 C72.39 -0.04 79.55 -0.04 86.72 -0.04 C107.01 -0.05 127.3 -0.06 147.6 -0.06 C148.69 -0.06 149.79 -0.06 150.92 -0.06 C152.01 -0.06 153.11 -0.06 154.24 -0.06 C172.02 -0.06 189.8 -0.07 207.57 -0.08 C225.81 -0.09 244.04 -0.1 262.27 -0.1 C272.51 -0.1 282.76 -0.1 293 -0.11 C301.72 -0.12 310.45 -0.12 319.17 -0.12 C323.62 -0.11 328.08 -0.11 332.53 -0.12 C336.6 -0.13 340.67 -0.13 344.74 -0.12 C346.22 -0.12 347.7 -0.12 349.18 -0.13 C351.18 -0.13 353.18 -0.13 355.18 -0.12 C356.85 -0.12 356.85 -0.12 358.55 -0.12 C361.15 0.13 361.15 0.13 363.15 2.13 C363.38 4.17 363.38 4.17 363.35 6.74 C363.35 7.71 363.34 8.68 363.34 9.68 C363.31 11.29 363.31 11.29 363.29 12.93 C363.27 14.62 363.27 14.62 363.26 16.34 C363.22 20.09 363.18 23.83 363.13 27.58 C363.1 30.19 363.08 32.81 363.05 35.42 C362.99 41.62 362.92 47.83 362.85 54.03 C362.76 61.68 362.68 69.34 362.6 76.99 C362.52 84.84 362.44 92.69 362.35 100.54 C362.33 102.36 362.33 102.36 362.31 104.22 C362.29 106.44 362.26 108.65 362.24 110.86 C362.12 121.62 362.15 132.37 362.15 143.13 C246.32 142.8 130.49 142.47 11.15 142.13 C9.86 137.61 8.86 133.96 8.3 129.42 C8.17 128.34 8.03 127.25 7.89 126.13 C7.74 124.95 7.6 123.78 7.46 122.57 C7.3 121.32 7.14 120.07 6.98 118.78 C6.55 115.37 6.14 111.95 5.72 108.53 C5.28 104.95 4.83 101.37 4.39 97.79 C3.64 91.78 2.9 85.77 2.16 79.76 C1.31 72.82 0.45 65.87 -0.41 58.93 C-1.24 52.24 -2.07 45.55 -2.89 38.86 C-3.24 36.02 -3.59 33.18 -3.95 30.33 C-4.44 26.37 -4.93 22.4 -5.41 18.43 C-5.56 17.25 -5.7 16.07 -5.86 14.86 C-5.99 13.78 -6.12 12.7 -6.26 11.58 C-6.37 10.64 -6.49 9.7 -6.6 8.74 C-6.84 6.17 -6.96 3.7 -6.85 1.13 C-5.06 -0.66 -2.41 0 0 0 Z " fill="#E3E7E8" transform="translate(276.84903621673584,228.87136554718018)"/>
<path d="M0 0 C164.98 0 164.98 0 174 1 C176 3 176 3 176.01 5.12 C175.9 6.07 175.8 7.02 175.69 8 C175.05 14.71 174.78 21.39 174.56 28.12 C174.21 38.26 173.59 48.35 172.8 58.47 C172.12 67.33 171.5 76.19 170.94 85.06 C170.89 85.74 170.85 86.42 170.81 87.11 C170.17 97.23 169.73 107.34 169.39 117.48 C169.07 126.38 168.43 135.25 167.73 144.14 C167.1 152.31 166.64 160.48 166.34 168.67 C166.18 172.95 165.95 177.23 165.6 181.5 C165.53 182.31 165.47 183.13 165.4 183.97 C165 186 165 186 163 188 C160.69 188.79 158.41 189.49 156.06 190.14 C154.99 190.44 154.99 190.44 153.9 190.75 C151.6 191.4 149.3 192.04 147 192.69 C145.54 193.1 144.09 193.51 142.63 193.93 C133.59 196.48 124.53 198.94 115.46 201.37 C102.15 204.94 88.88 208.67 75.62 212.44 C73.29 213.1 70.96 213.76 68.62 214.42 C57.77 217.5 46.92 220.59 36.07 223.7 C31.05 225.14 26.03 226.57 21 228 C20.18 228.23 19.36 228.47 18.52 228.71 C16.37 229.31 14.22 229.91 12.06 230.5 C10.98 230.8 9.9 231.1 8.79 231.41 C6 232 6 232 1 232 C0.67 155.44 0.34 78.88 0 0 Z " fill="#2DA8DD" transform="translate(638,661)"/>
<path d="M0 0 C1.92 -0.05 3.83 -0.09 5.75 -0.12 C7.35 -0.16 7.35 -0.16 8.98 -0.2 C11.92 -0 13.52 0.47 16 2 C14.25 2.67 12.5 3.34 10.75 4 C9.29 4.56 9.29 4.56 7.8 5.12 C5 6 5 6 1 6 C0.67 4.02 0.34 2.04 0 0 Z " fill="#2EA6DB" transform="translate(638,372)"/>
<path d="M0 0 C0.33 0 0.66 0 1 0 C1 6.93 1 13.86 1 21 C0.67 21 0.34 21 0 21 C0 14.07 0 7.14 0 0 Z " fill="#2DA8DD" transform="translate(1183,253)"/>
<path d="M0 0 C0.33 0 0.66 0 1 0 C1 5.61 1 11.22 1 17 C0.67 17 0.34 17 0 17 C0 11.39 0 5.78 0 0 Z " fill="#000102" transform="translate(1137,783)"/>
<path d="M0 0 C0.33 0 0.66 0 1 0 C1 5.61 1 11.22 1 17 C0.67 17 0.34 17 0 17 C0 11.39 0 5.78 0 0 Z " fill="#000102" transform="translate(1162,503)"/>
<path d="M0 0 C0.33 0 0.66 0 1 0 C1 5.61 1 11.22 1 17 C0.67 17 0.34 17 0 17 C0 11.39 0 5.78 0 0 Z " fill="#000102" transform="translate(1187,223)"/>
<path d="M0 0 C0.33 0 0.66 0 1 0 C1 5.28 1 10.56 1 16 C0.67 16 0.34 16 0 16 C0 10.72 0 5.44 0 0 Z " fill="#000102" transform="translate(1117,1008)"/>
<path d="M0 0 C0.33 0 0.66 0 1 0 C1 5.28 1 10.56 1 16 C0.67 16 0.34 16 0 16 C0 10.72 0 5.44 0 0 Z " fill="#000102" transform="translate(1127,896)"/>
<path d="M0 0 C0.33 0 0.66 0 1 0 C1 5.28 1 10.56 1 16 C0.67 16 0.34 16 0 16 C0 10.72 0 5.44 0 0 Z " fill="#000102" transform="translate(1142,728)"/>
<path d="M0 0 C0.33 0 0.66 0 1 0 C1 5.28 1 10.56 1 16 C0.67 16 0.34 16 0 16 C0 10.72 0 5.44 0 0 Z " fill="#000102" transform="translate(1152,616)"/>
<path d="M0 0 C0.33 0 0.66 0 1 0 C1 5.28 1 10.56 1 16 C0.67 16 0.34 16 0 16 C0 10.72 0 5.44 0 0 Z " fill="#000102" transform="translate(1167,448)"/>
<path d="M0 0 C0.33 0 0.66 0 1 0 C1 5.28 1 10.56 1 16 C0.67 16 0.34 16 0 16 C0 10.72 0 5.44 0 0 Z " fill="#000102" transform="translate(1177,336)"/>
<path d="M0 0 C0.33 0 0.66 0 1 0 C1 5.28 1 10.56 1 16 C0.67 16 0.34 16 0 16 C0 10.72 0 5.44 0 0 Z " fill="#000102" transform="translate(1192,168)"/>
<path d="M0 0 C0.33 0 0.66 0 1 0 C1 5.28 1 10.56 1 16 C0.67 16 0.34 16 0 16 C0 10.72 0 5.44 0 0 Z " fill="#000102" transform="translate(1202,56)"/>
<path d="M0 0 C0.33 0 0.66 0 1 0 C1 5.28 1 10.56 1 16 C0.67 16 0.34 16 0 16 C0 10.72 0 5.44 0 0 Z " fill="#000102" transform="translate(1207,0)"/>
<path d="M0 0 C0.33 0 0.66 0 1 0 C1 4.95 1 9.9 1 15 C0.67 15 0.34 15 0 15 C0 10.05 0 5.1 0 0 Z " fill="#000102" transform="translate(1107,1121)"/>
<path d="M0 0 C0.33 0 0.66 0 1 0 C1 4.95 1 9.9 1 15 C0.67 15 0.34 15 0 15 C0 10.05 0 5.1 0 0 Z " fill="#000102" transform="translate(1122,953)"/>
<path d="M0 0 C0.33 0 0.66 0 1 0 C1 4.95 1 9.9 1 15 C0.67 15 0.34 15 0 15 C0 10.05 0 5.1 0 0 Z " fill="#000102" transform="translate(1132,841)"/>
<path d="M0 0 C0.33 0 0.66 0 1 0 C1 4.95 1 9.9 1 15 C0.67 15 0.34 15 0 15 C0 10.05 0 5.1 0 0 Z " fill="#000102" transform="translate(1147,673)"/>
<path d="M0 0 C0.33 0 0.66 0 1 0 C1 4.95 1 9.9 1 15 C0.67 15 0.34 15 0 15 C0 10.05 0 5.1 0 0 Z " fill="#000102" transform="translate(1157,561)"/>
<path d="M0 0 C0.33 0 0.66 0 1 0 C1 4.95 1 9.9 1 15 C0.67 15 0.34 15 0 15 C0 10.05 0 5.1 0 0 Z " fill="#000102" transform="translate(1182,281)"/>
<path d="M0 0 C0.33 0 0.66 0 1 0 C1 4.62 1 9.24 1 14 C0.67 14 0.34 14 0 14 C0 9.38 0 4.76 0 0 Z " fill="#000102" transform="translate(1112,1066)"/>
<path d="M0 0 C0.33 0 0.66 0 1 0 C1 4.62 1 9.24 1 14 C0.67 14 0.34 14 0 14 C0 9.38 0 4.76 0 0 Z " fill="#000102" transform="translate(1172,394)"/>
<path d="M0 0 C0.33 0 0.66 0 1 0 C1 4.62 1 9.24 1 14 C0.67 14 0.34 14 0 14 C0 9.38 0 4.76 0 0 Z " fill="#000102" transform="translate(1197,114)"/>
<path d="M0 0 C0.33 0 0.66 0 1 0 C1 3.3 1 6.6 1 10 C0.67 10 0.34 10 0 10 C0 6.7 0 3.4 0 0 Z " fill="#000102" transform="translate(1125,923)"/>
<path d="M0 0 C0.33 0 0.66 0 1 0 C1 3.3 1 6.6 1 10 C0.67 10 0.34 10 0 10 C0 6.7 0 3.4 0 0 Z " fill="#000102" transform="translate(1150,643)"/>
<path d="M0 0 C0.33 0 0.66 0 1 0 C1 3.3 1 6.6 1 10 C0.67 10 0.34 10 0 10 C0 6.7 0 3.4 0 0 Z " fill="#000102" transform="translate(1175,363)"/>
<path d="M0 0 C0.33 0 0.66 0 1 0 C1 3.3 1 6.6 1 10 C0.67 10 0.34 10 0 10 C0 6.7 0 3.4 0 0 Z " fill="#000102" transform="translate(1200,83)"/>
<path d="M0 0 C0.33 0 0.66 0 1 0 C1 2.97 1 5.94 1 9 C0.67 9 0.34 9 0 9 C0 6.03 0 3.06 0 0 Z " fill="#000102" transform="translate(1115,1036)"/>
<path d="M0 0 C0.33 0 0.66 0 1 0 C1 2.97 1 5.94 1 9 C0.67 9 0.34 9 0 9 C0 6.03 0 3.06 0 0 Z " fill="#000102" transform="translate(1130,868)"/>
<path d="M0 0 C0.33 0 0.66 0 1 0 C1 2.97 1 5.94 1 9 C0.67 9 0.34 9 0 9 C0 6.03 0 3.06 0 0 Z " fill="#000102" transform="translate(1140,756)"/>
<path d="M0 0 C0.33 0 0.66 0 1 0 C1 2.97 1 5.94 1 9 C0.67 9 0.34 9 0 9 C0 6.03 0 3.06 0 0 Z " fill="#000102" transform="translate(1155,588)"/>
<path d="M0 0 C0.33 0 0.66 0 1 0 C1 2.97 1 5.94 1 9 C0.67 9 0.34 9 0 9 C0 6.03 0 3.06 0 0 Z " fill="#000102" transform="translate(1165,476)"/>
<path d="M0 0 C0.33 0 0.66 0 1 0 C1 2.97 1 5.94 1 9 C0.67 9 0.34 9 0 9 C0 6.03 0 3.06 0 0 Z " fill="#000102" transform="translate(1180,308)"/>
<path d="M0 0 C0.33 0 0.66 0 1 0 C1 2.97 1 5.94 1 9 C0.67 9 0.34 9 0 9 C0 6.03 0 3.06 0 0 Z " fill="#000102" transform="translate(1190,196)"/>
<path d="M0 0 C0.33 0 0.66 0 1 0 C1 2.97 1 5.94 1 9 C0.67 9 0.34 9 0 9 C0 6.03 0 3.06 0 0 Z " fill="#000102" transform="translate(1205,28)"/>
<path d="M0 0 C0.33 0 0.66 0 1 0 C1 2.64 1 5.28 1 8 C0.67 8 0.34 8 0 8 C0 5.36 0 2.72 0 0 Z " fill="#000102" transform="translate(1110,1093)"/>
<path d="M0 0 C0.33 0 0.66 0 1 0 C1 2.64 1 5.28 1 8 C0.67 8 0.34 8 0 8 C0 5.36 0 2.72 0 0 Z " fill="#000102" transform="translate(1120,981)"/>
<path d="M0 0 C0.33 0 0.66 0 1 0 C1 2.64 1 5.28 1 8 C0.67 8 0.34 8 0 8 C0 5.36 0 2.72 0 0 Z " fill="#000102" transform="translate(1135,813)"/>
<path d="M0 0 C0.33 0 0.66 0 1 0 C1 2.64 1 5.28 1 8 C0.67 8 0.34 8 0 8 C0 5.36 0 2.72 0 0 Z " fill="#000102" transform="translate(1145,701)"/>
<path d="M0 0 C0.33 0 0.66 0 1 0 C1 2.64 1 5.28 1 8 C0.67 8 0.34 8 0 8 C0 5.36 0 2.72 0 0 Z " fill="#000102" transform="translate(1160,533)"/>
<path d="M0 0 C0.33 0 0.66 0 1 0 C1 2.64 1 5.28 1 8 C0.67 8 0.34 8 0 8 C0 5.36 0 2.72 0 0 Z " fill="#000102" transform="translate(1170,421)"/>
<path d="M0 0 C0.33 0 0.66 0 1 0 C1 2.64 1 5.28 1 8 C0.67 8 0.34 8 0 8 C0 5.36 0 2.72 0 0 Z " fill="#000102" transform="translate(1185,253)"/>
<path d="M0 0 C0.33 0 0.66 0 1 0 C1 2.64 1 5.28 1 8 C0.67 8 0.34 8 0 8 C0 5.36 0 2.72 0 0 Z " fill="#000102" transform="translate(1195,141)"/>
<path d="M0 0 C1.65 0 3.3 0 5 0 C5 0.33 5 0.66 5 1 C3.35 1 1.7 1 0 1 C0 0.67 0 0.34 0 0 Z " fill="#2DA8DD" transform="translate(393,1213)"/>
<path d="M0 0 C1.65 0 3.3 0 5 0 C5 0.33 5 0.66 5 1 C3.35 1 1.7 1 0 1 C0 0.67 0 0.34 0 0 Z " fill="#2DA8DD" transform="translate(303,1188)"/>
<path d="M0 0 C0.33 0 0.66 0 1 0 C1 1.65 1 3.3 1 5 C0.67 5 0.34 5 0 5 C0 3.35 0 1.7 0 0 Z " fill="#000102" transform="translate(1105,1147)"/>
<path d="M0 0 C4 1 4 1 4 1 Z " fill="#2DA8DD" transform="translate(574,1263)"/>
<path d="M0 0 C4 1 4 1 4 1 Z " fill="#2DA8DD" transform="translate(484,1238)"/>
<path d="M0 0 C3 1 3 1 3 1 Z " fill="#000102" transform="translate(698,1265)"/>
<path d="M0 0 C3 1 3 1 3 1 Z " fill="#000102" transform="translate(788,1240)"/>
<path d="M0 0 C3 1 3 1 3 1 Z " fill="#000102" transform="translate(878,1215)"/>
<path d="M0 0 C3 1 3 1 3 1 Z " fill="#1E95CF" transform="translate(916,1203)"/>
<path d="M0 0 C3 1 3 1 3 1 Z " fill="#000102" transform="translate(968,1190)"/>
<path d="M0 0 C2 1 2 1 2 1 Z " fill="#000102" transform="translate(663,1275)"/>
<path d="M0 0 C2 1 2 1 2 1 Z " fill="#000102" transform="translate(615,1275)"/>
<path d="M0 0 C2 1 2 1 2 1 Z " fill="#000102" transform="translate(681,1270)"/>
<path d="M0 0 C2 1 2 1 2 1 Z " fill="#000102" transform="translate(597,1270)"/>
<path d="M0 0 C2 1 2 1 2 1 Z " fill="#000102" transform="translate(716,1260)"/>
<path d="M0 0 C2 1 2 1 2 1 Z " fill="#000102" transform="translate(753,1250)"/>
<path d="M0 0 C2 1 2 1 2 1 Z " fill="#000102" transform="translate(525,1250)"/>
<path d="M0 0 C2 1 2 1 2 1 Z " fill="#000102" transform="translate(771,1245)"/>
<path d="M0 0 C2 1 2 1 2 1 Z " fill="#000102" transform="translate(507,1245)"/>
<path d="M0 0 C2 1 2 1 2 1 Z " fill="#168CC8" transform="translate(811,1233)"/>
<path d="M0 0 C2 1 2 1 2 1 Z " fill="#000102" transform="translate(843,1225)"/>
<path d="M0 0 C2 1 2 1 2 1 Z " fill="#000102" transform="translate(435,1225)"/>
<path d="M0 0 C2 1 2 1 2 1 Z " fill="#000102" transform="translate(854,1222)"/>
<path d="M0 0 C2 1 2 1 2 1 Z " fill="#000102" transform="translate(423,1222)"/>
<path d="M0 0 C2 1 2 1 2 1 Z " fill="#000102" transform="translate(861,1220)"/>
<path d="M0 0 C2 1 2 1 2 1 Z " fill="#000102" transform="translate(417,1220)"/>
<path d="M0 0 C2 1 2 1 2 1 Z " fill="#2DA8DD" transform="translate(898,1208)"/>
<path d="M0 0 C2 1 2 1 2 1 Z " fill="#000102" transform="translate(933,1200)"/>
<path d="M0 0 C2 1 2 1 2 1 Z " fill="#000102" transform="translate(345,1200)"/>
<path d="M0 0 C2 1 2 1 2 1 Z " fill="#000102" transform="translate(333,1197)"/>
<path d="M0 0 C2 1 2 1 2 1 Z " fill="#000102" transform="translate(951,1195)"/>
<path d="M0 0 C2 1 2 1 2 1 Z " fill="#000102" transform="translate(327,1195)"/>
<path d="M0 0 C2 1 2 1 2 1 Z " fill="#000102" transform="translate(1023,1175)"/>
<path d="M0 0 C2 1 2 1 2 1 Z " fill="#000102" transform="translate(255,1175)"/>
<path d="M0 0 C2 1 2 1 2 1 Z " fill="#000102" transform="translate(243,1172)"/>
<path d="M0 0 C2 1 2 1 2 1 Z " fill="#000102" transform="translate(1041,1170)"/>
<path d="M0 0 C2 1 2 1 2 1 Z " fill="#000102" transform="translate(237,1170)"/>
<path d="M0 0 C2 1 2 1 2 1 Z " fill="#000102" transform="translate(200,1160)"/>
<path d="M0 0 C2 1 2 1 2 1 Z " fill="#2DA8DD" transform="translate(1078,1158)"/>
<path d="M0 0 C2 1 2 1 2 1 Z " fill="#000102" transform="translate(182,1155)"/>
<path d="" fill="#000102" transform="translate(0,0)"/>
<path d="" fill="#2DA8DD" transform="translate(0,0)"/>
<path d="" fill="#0070B3" transform="translate(0,0)"/>
<path d="" fill="#2DA8DD" transform="translate(0,0)"/>
<path d="" fill="#000102" transform="translate(0,0)"/>
<path d="" fill="#2DA8DD" transform="translate(0,0)"/>
<path d="" fill="#000102" transform="translate(0,0)"/>
<path d="" fill="#000102" transform="translate(0,0)"/>
<path d="" fill="#2DA8DD" transform="translate(0,0)"/>
<path d="" fill="#000102" transform="translate(0,0)"/>
<path d="" fill="#000102" transform="translate(0,0)"/>
<path d="" fill="#000102" transform="translate(0,0)"/>
<path d="" fill="#000102" transform="translate(0,0)"/>
<path d="" fill="#2DA8DD" transform="translate(0,0)"/>
<path d="" fill="#2DA8DD" transform="translate(0,0)"/>
<path d="" fill="#2DA8DD" transform="translate(0,0)"/>
<path d="" fill="#000102" transform="translate(0,0)"/>
<path d="" fill="#000102" transform="translate(0,0)"/>
<path d="" fill="#000102" transform="translate(0,0)"/>
<path d="" fill="#000102" transform="translate(0,0)"/>
<path d="" fill="#2DA8DD" transform="translate(0,0)"/>
<path d="" fill="#2DA8DD" transform="translate(0,0)"/>
<path d="" fill="#2DA8DD" transform="translate(0,0)"/>
<path d="" fill="#2DA8DD" transform="translate(0,0)"/>
<path d="" fill="#000102" transform="translate(0,0)"/>
<path d="" fill="#000102" transform="translate(0,0)"/>
<path d="" fill="#2DA8DD" transform="translate(0,0)"/>
<path d="" fill="#000102" transform="translate(0,0)"/>
<path d="" fill="#000102" transform="translate(0,0)"/>
<path d="" fill="#2DA8DD" transform="translate(0,0)"/>
<path d="" fill="#2DA8DD" transform="translate(0,0)"/>
<path d="" fill="#000102" transform="translate(0,0)"/>
<path d="" fill="#2DA8DD" transform="translate(0,0)"/>
<path d="" fill="#0070B3" transform="translate(0,0)"/>
<path d="" fill="#000102" transform="translate(0,0)"/>
<path d="" fill="#000102" transform="translate(0,0)"/>
<path d="" fill="#000102" transform="translate(0,0)"/>
<path d="" fill="#000102" transform="translate(0,0)"/>
<path d="" fill="#0070B3" transform="translate(0,0)"/>
<path d="" fill="#000102" transform="translate(0,0)"/>
<path d="" fill="#000102" transform="translate(0,0)"/>
<path d="" fill="#0070B3" transform="translate(0,0)"/>
<path d="" fill="#000102" transform="translate(0,0)"/>
<path d="" fill="#0070B3" transform="translate(0,0)"/>
<path d="" fill="#0070B3" transform="translate(0,0)"/>
<path d="" fill="#000102" transform="translate(0,0)"/>
<path d="" fill="#000102" transform="translate(0,0)"/>
<path d="" fill="#0070B3" transform="translate(0,0)"/>
<path d="" fill="#000102" transform="translate(0,0)"/>
</svg>
